<?xml version="1.0" standalone="no"?>
<!DOCTYPE svg PUBLIC "-//W3C//DTD SVG 20010904//EN"
 "http://www.w3.org/TR/2001/REC-SVG-20010904/DTD/svg10.dtd">
<svg version="1.0" xmlns="http://www.w3.org/2000/svg"
 width="400.000000pt" height="400.000000pt" viewBox="0 0 400.000000 400.000000"
 preserveAspectRatio="xMidYMid meet">
<metadata>
Created by potrace 1.14, written by Peter Selinger 2001-2017
</metadata>
<g transform="translate(0.000000,400.000000) scale(0.100000,-0.100000)"
fill="#000000" stroke="none">
<path d="M10 3893 c1 -60 -1 -152 -4 -205 -5 -65 -3 -98 4 -98 5 0 10 -9 10
-20 0 -11 -5 -20 -10 -20 -7 0 -10 -44 -9 -122 l1 -123 63 -95 c74 -113 97
-142 237 -293 l106 -116 -29 -76 c-42 -110 -53 -196 -54 -412 0 -105 -3 -186
-7 -180 -12 18 -9 -38 3 -70 10 -27 11 -27 25 -9 8 11 14 15 14 10 0 -6 -5
-15 -11 -21 -6 -6 -8 -17 -3 -24 6 -10 9 -8 14 5 5 15 9 13 30 -11 19 -21 20
-24 3 -10 -14 13 -23 15 -28 7 -5 -8 -11 -8 -19 -1 -7 6 -17 7 -21 3 -5 -4 -5
-1 -1 6 5 7 2 21 -6 30 -34 40 -43 103 -54 376 -6 145 -10 172 -26 188 -10 10
-17 21 -16 25 3 10 -31 73 -38 73 -4 0 -4 -12 0 -27 5 -28 5 -28 -9 2 -8 17
-14 25 -15 19 0 -19 -38 -10 -60 14 -15 16 -32 22 -60 22 -40 0 -40 0 -40 -40
0 -23 5 -40 11 -40 6 0 9 -6 6 -13 -3 -7 4 -24 14 -38 21 -27 25 -20 8 14 -7
15 -3 12 15 -8 14 -16 23 -36 21 -42 -2 -7 4 -18 14 -25 22 -17 52 -76 41 -83
-10 -6 -15 1 -24 38 -3 15 -11 27 -16 27 -13 0 -13 0 10 -48 12 -24 25 -40 30
-37 6 4 7 -1 3 -11 -4 -11 -2 -15 4 -11 6 4 14 0 17 -9 3 -8 2 -13 -2 -10 -5
3 1 -14 12 -37 l21 -42 6 32 c6 36 15 50 25 40 4 -4 1 -13 -6 -22 -7 -8 -10
-29 -8 -47 3 -18 1 -43 -5 -56 -8 -17 -7 -26 2 -35 11 -10 12 -7 6 13 -5 19
-4 21 4 10 8 -11 11 -12 11 -2 0 7 5 10 11 6 7 -4 7 -9 2 -13 -13 -8 -25 -44
-13 -36 6 3 10 2 10 -4 0 -51 -67 49 -174 259 -27 52 -50 97 -52 99 -2 2 -2
-15 -1 -37 0 -22 6 -40 11 -39 6 1 17 -11 26 -28 8 -16 35 -66 59 -109 24 -44
44 -84 46 -90 1 -6 5 -18 8 -26 10 -24 13 -270 3 -260 -5 5 -9 65 -10 134 -1
81 -5 129 -13 137 -6 6 -9 18 -6 25 4 10 0 12 -11 8 -19 -7 -20 -16 -5 -31 5
-5 9 -30 6 -54 l-4 -44 -1 48 c-1 27 -6 46 -11 43 -4 -3 -8 5 -7 17 3 31 -14
66 -35 72 -10 3 -21 15 -24 26 -8 23 -21 25 -29 3 -3 -9 -6 -96 -6 -194 0
-133 3 -180 13 -183 9 -4 9 -8 -2 -15 -23 -17 -2 -35 33 -28 17 4 55 9 83 12
86 9 61 -12 -37 -32 l-91 -18 1 -204 c2 -224 -5 -205 60 -186 11 3 34 -1 50
-10 17 -8 55 -18 85 -21 30 -4 55 -12 55 -17 0 -6 -10 -7 -22 -4 -13 4 -48 11
-78 16 -30 5 -56 14 -58 20 -2 5 -11 10 -20 9 -11 0 -12 -2 -4 -6 6 -2 10 -8
7 -13 -3 -4 18 -11 45 -15 76 -10 154 -33 165 -48 5 -7 24 -14 41 -15 28 -2
31 1 47 51 30 94 129 235 189 268 14 8 13 0 -8 -44 -29 -64 -64 -197 -64 -244
0 -31 12 -44 24 -24 3 4 31 4 62 -1 31 -5 59 -6 62 -3 3 3 0 5 -6 5 -7 0 -12
8 -12 19 0 13 -7 18 -22 17 -13 -1 -22 -7 -20 -15 1 -7 -2 -10 -6 -7 -14 8 -8
51 6 48 21 -4 13 16 -14 37 -15 12 -23 21 -18 21 5 0 38 -29 74 -64 64 -63 66
-64 126 -68 l61 -4 -34 37 c-19 20 -41 45 -48 55 -8 11 -15 14 -15 8 0 -5 6
-16 13 -24 6 -8 2 -6 -10 4 -13 10 -20 23 -17 27 3 5 0 9 -6 9 -6 0 -9 4 -6 8
2 4 -20 34 -49 66 l-54 58 14 34 c8 19 16 34 18 34 3 0 56 -62 120 -137 122
-147 178 -205 193 -202 11 3 25 -3 122 -47 108 -49 171 -103 250 -213 27 -38
49 -53 122 -88 83 -39 92 -46 130 -104 22 -34 40 -66 40 -71 0 -20 19 -4 48
40 94 146 255 222 467 221 179 0 317 -60 390 -171 l26 -39 32 42 c27 35 48 49
132 83 86 36 102 46 120 78 67 119 200 238 305 273 50 17 105 59 310 239 169
149 249 225 290 278 44 55 46 68 44 418 -1 172 -5 241 -23 344 l-22 130 58 59
c32 32 97 97 146 145 l87 86 0 178 c-1 147 -4 178 -16 178 -8 0 -14 9 -14 20
0 11 -4 20 -10 20 -5 0 -10 7 -10 16 0 8 5 12 10 9 6 -3 10 -1 10 4 0 6 7 11
15 11 12 0 15 13 15 61 0 37 -4 58 -10 54 -5 -3 -10 -13 -10 -21 0 -8 -5 -14
-11 -14 -15 0 -1 62 17 76 18 14 17 72 -1 104 -19 33 -19 60 0 60 12 0 15 15
13 79 l-1 79 -97 0 -96 0 38 -126 c21 -70 44 -167 49 -217 l11 -90 -84 -74
c-144 -128 -336 -332 -406 -430 -105 -149 -161 -200 -288 -263 -60 -30 -188
-85 -284 -122 -96 -38 -192 -75 -213 -84 -28 -11 -49 -32 -75 -71 -50 -78
-152 -259 -152 -270 0 -5 -7 -14 -15 -21 -10 -9 -15 -9 -15 -1 0 6 4 11 8 11
11 0 2 72 -11 88 -6 7 -19 11 -29 9 -20 -6 -26 19 -5 26 8 3 6 11 -9 28 -12
13 -24 32 -27 41 -4 11 -12 15 -22 12 -10 -4 -15 0 -15 13 0 27 -62 85 -83 77
-9 -3 -17 -10 -17 -16 0 -5 -13 -1 -30 8 -35 21 -32 26 28 40 39 9 44 12 27
19 -11 5 -28 19 -37 31 -10 12 -30 24 -45 26 l-28 4 2 -61 c1 -44 -1 -55 -8
-43 -9 16 -12 16 -34 -10 -19 -20 -27 -24 -33 -14 -13 19 -44 3 -37 -19 5 -15
1 -19 -19 -19 -24 0 -26 -4 -26 -40 l0 -40 55 0 55 0 0 -40 c0 -36 3 -40 25
-40 l25 0 0 -120 0 -120 -25 0 c-25 0 -25 -1 -25 -80 l0 -80 33 0 c24 0 28 -3
17 -10 -12 -7 -12 -12 -2 -22 9 -9 12 -9 12 1 0 10 3 11 14 2 11 -9 16 -9 21
0 4 6 1 15 -6 20 -17 11 -1 10 26 -1 18 -7 19 -8 3 -15 -22 -9 -24 -30 -3 -21
12 4 13 2 2 -14 -11 -19 -12 -19 -20 -2 -5 12 -6 9 -4 -10 2 -15 0 -25 -4 -22
-5 3 -9 -3 -9 -13 0 -10 -16 -33 -35 -51 l-34 -33 -21 21 c-20 20 -50 27 -50
12 0 -5 -10 -8 -22 -7 -20 1 -23 7 -23 43 0 37 3 42 23 42 22 0 22 2 22 120
l0 120 -25 0 c-22 0 -25 -4 -25 -40 l0 -40 -80 0 c-62 0 -80 3 -80 14 0 8 7
16 15 20 8 3 15 15 15 26 0 17 6 20 50 20 l50 0 0 80 c0 79 0 80 -25 80 -19 0
-25 5 -25 22 0 12 -7 30 -17 40 -15 17 -15 18 0 18 11 0 17 8 17 25 0 23 -4
25 -40 25 -22 0 -40 -4 -40 -10 0 -6 -33 -10 -80 -10 -64 0 -80 -3 -80 -15 0
-8 -7 -15 -15 -15 -10 0 -15 10 -15 28 0 18 3 23 9 14 6 -10 10 -10 21 3 9 11
32 15 86 15 43 0 74 4 74 10 0 6 -33 10 -80 10 -44 0 -80 4 -80 9 0 5 -14 23
-31 40 -37 38 -49 39 -49 6 0 -33 -11 -32 -45 7 l-29 33 -7 -25 c-6 -23 -7
-22 -8 8 -1 34 -21 36 -21 2 0 -10 -4 -21 -9 -24 -5 -4 -7 3 -4 13 3 11 0 28
-7 38 -10 16 -10 15 -5 -7 5 -22 4 -23 -5 -7 -7 10 -9 26 -5 35 3 9 3 13 -1 9
-4 -4 -19 16 -32 44 -23 46 -32 54 -86 77 -114 48 -291 144 -399 215 -106 70
-109 73 -150 152 -77 148 -378 494 -545 627 l-62 50 6 52 c6 59 40 178 60 219
12 23 12 27 1 27 -8 0 -24 -21 -35 -47 -12 -27 -21 -40 -22 -31 0 9 -5 20 -11
24 -8 4 -9 0 -4 -15 5 -16 3 -20 -9 -15 -12 5 -16 0 -16 -17 0 -19 2 -21 10
-9 7 11 10 11 10 2 0 -7 4 -10 10 -7 6 3 7 -1 4 -9 -3 -9 -10 -13 -15 -10 -5
3 -9 -2 -9 -10 0 -34 -20 -14 -21 22 -1 20 -5 48 -10 62 -6 18 -8 3 -6 -47 2
-41 -1 -66 -5 -58 -5 8 -10 48 -11 90 -1 41 -6 75 -10 75 -5 0 -8 -48 -7 -107z
m3880 54 l10 -32 -4 38 c-3 22 -1 35 5 32 12 -8 12 -62 -1 -70 -5 -3 -10 -22
-10 -41 0 -21 4 -33 10 -29 6 3 10 4 10 1 0 -2 3 -12 7 -22 4 -12 3 -15 -5
-10 -7 4 -12 2 -12 -5 0 -7 -3 -10 -6 -7 -3 4 -9 39 -13 80 -4 40 -12 82 -16
92 -6 14 -5 17 3 12 6 -4 16 -21 22 -39z m-27 -14 c7 -39 1 -40 -11 -4 -6 17
-7 31 -3 31 5 0 11 -12 14 -27z m56 -50 c0 -25 -1 -25 -8 -8 -5 11 -7 23 -4
28 8 14 13 7 12 -20z m-3836 -133 c-4 -57 -3 -80 6 -80 6 0 11 -5 11 -11 0 -5
-5 -7 -11 -3 -6 3 -3 -5 6 -20 10 -15 19 -42 20 -61 1 -19 9 -43 19 -54 9 -10
26 -51 37 -91 16 -57 18 -79 9 -103 -13 -38 -13 -50 0 -42 5 3 10 16 11 28 0
13 6 3 14 -23 7 -25 16 -54 20 -65 5 -14 4 -16 -3 -7 -8 11 -10 11 -15 0 -3
-8 0 -15 6 -15 7 0 21 -4 32 -9 18 -7 19 -6 5 12 -14 19 -14 19 7 1 21 -19 21
-37 0 -64 -12 -17 5 -17 21 -1 9 9 12 9 12 1 0 -16 -18 -26 -36 -19 -11 4 -12
10 -5 25 15 28 2 32 -25 8 -16 -14 -22 -27 -18 -39 8 -26 -14 -52 -32 -37 -8
6 -11 15 -8 20 3 5 1 9 -5 9 -5 0 -23 19 -40 42 -32 43 -41 75 -18 62 6 -4 4
2 -7 14 -10 12 -22 19 -26 17 -11 -7 -52 61 -55 89 -2 17 2 22 21 22 27 0 28
-4 14 -42 -13 -33 1 -53 21 -31 11 11 19 12 36 4 18 -8 23 -18 23 -48 0 -20 3
-45 7 -55 5 -14 3 -16 -12 -11 -15 6 -16 5 -5 -8 7 -8 16 -12 21 -9 5 3 9 0 9
-6 0 -6 5 -8 11 -4 7 4 7 9 2 13 -5 3 -13 15 -16 26 -7 19 -6 19 7 2 14 -18
16 -16 36 22 22 45 18 53 -10 19 l-17 -22 0 28 c0 20 2 24 8 15 7 -11 9 -10 9
3 0 9 -5 20 -10 23 -6 4 -8 21 -4 42 5 26 3 34 -5 29 -7 -5 -9 -1 -4 9 5 14 8
14 15 3 11 -14 10 -8 -13 77 -8 28 -16 52 -19 55 -3 3 -12 18 -20 33 -14 27
-14 28 -22 7 -11 -29 -28 -16 -28 23 -1 18 -2 55 -2 82 -3 82 4 195 13 195 4
0 5 -36 2 -80z m3836 -10 c0 -9 -4 -8 -9 5 -5 11 -9 27 -9 35 0 9 4 8 9 -5 5
-11 9 -27 9 -35z m21 -139 c0 -54 -4 -80 -12 -84 -10 -3 -12 15 -10 79 4 106
22 110 22 5z m-3755 -15 c0 -6 6 -11 14 -11 9 0 14 -18 17 -59 3 -33 7 -63 9
-66 7 -11 54 -9 61 1 3 5 10 9 15 9 6 0 7 -5 3 -11 -4 -8 0 -8 15 0 18 10 20
9 14 -5 -4 -12 -3 -15 5 -10 8 5 10 2 6 -8 -3 -9 -1 -16 5 -16 6 0 11 5 11 12
0 17 11 3 15 -19 1 -10 8 -17 13 -16 6 2 9 -4 6 -12 -5 -11 -2 -13 12 -8 17 6
17 5 5 -10 -8 -10 -10 -21 -6 -25 4 -4 10 -1 12 6 3 6 8 12 13 12 11 0 70 -80
70 -94 0 -6 -5 -4 -10 4 -8 12 -10 11 -10 -7 0 -28 -11 -29 -35 -3 -18 20 -18
21 0 14 13 -5 16 -4 11 4 -4 7 -2 12 3 12 6 0 11 5 11 10 0 7 -7 7 -20 0 -16
-8 -20 -8 -18 2 2 7 7 16 12 19 4 4 3 10 -3 13 -6 4 -15 -4 -21 -18 -5 -14
-12 -26 -14 -26 -3 0 -3 6 -1 13 3 6 -5 17 -17 22 -30 14 -47 43 -30 54 9 6 8
12 -8 26 -11 10 -20 13 -20 7 0 -6 6 -12 13 -15 6 -2 8 -8 4 -13 -11 -12 -28
18 -21 39 6 18 -11 24 -21 7 -5 -8 -12 -7 -22 1 -19 16 -36 -6 -28 -37 9 -40
-23 -37 -40 3 -8 19 -15 41 -14 47 0 6 9 -9 19 -34 l19 -45 0 37 c1 29 -5 41
-22 53 -23 15 -53 85 -37 85 4 0 13 -17 19 -37 l10 -38 -5 40 c-7 55 -14 75
-24 75 -5 0 -7 -8 -3 -17 3 -10 3 -15 -1 -12 -11 11 -15 49 -5 49 6 0 7 5 4
10 -4 6 -10 8 -14 5 -5 -2 -14 8 -20 22 l-12 27 28 -28 c15 -16 28 -33 28 -40z
m-126 0 c8 -10 9 -16 1 -21 -5 -3 -10 -15 -10 -26 0 -10 -4 -19 -10 -19 -5 0
-9 18 -7 40 2 43 8 48 26 26z m81 -29 c0 -5 -4 -5 -10 -2 -5 3 -10 14 -10 23
0 15 2 15 10 2 5 -8 10 -19 10 -23z m124 -39 c44 -29 45 -29 25 -49 -26 -26
-30 -24 -24 12 3 18 2 28 -4 25 -5 -4 -12 0 -15 6 -3 7 -3 -5 0 -27 4 -29 3
-36 -5 -25 -6 8 -10 35 -9 59 0 36 2 40 11 25 6 -10 15 -22 21 -26z m-124 -60
c0 -5 -4 -8 -8 -8 -9 0 -32 44 -32 58 1 9 39 -41 40 -50z m3737 39 c0 -8 -6
-14 -14 -14 -9 0 -10 4 -2 14 6 7 12 13 14 13 1 0 2 -6 2 -13z m38 -77 c1 -38
-3 -66 -8 -63 -4 3 -6 11 -3 18 3 8 0 16 -7 19 -9 5 -9 7 1 12 18 8 15 27 -4
20 -12 -5 -14 -1 -8 17 4 12 10 23 15 25 4 2 5 11 2 20 -4 10 -2 14 3 9 5 -5
9 -39 9 -77z m-45 39 c0 -5 -8 -6 -17 -2 -14 5 -15 3 -7 -6 16 -18 6 -47 -22
-66 -24 -16 -32 -49 -14 -60 6 -3 10 4 11 17 0 13 3 17 6 10 3 -7 -5 -45 -17
-84 -12 -40 -23 -89 -25 -111 -2 -33 -13 -49 -71 -108 -38 -38 -74 -67 -80
-65 -6 2 -17 -1 -24 -7 -10 -10 -10 -7 -1 11 6 12 16 22 22 22 6 0 7 -4 4 -10
-3 -5 -3 -10 0 -10 11 0 30 24 43 53 6 15 16 26 21 22 5 -3 23 7 40 21 25 21
30 31 25 52 -4 22 -3 24 6 12 9 -12 10 -8 5 17 -4 20 -1 42 9 62 9 16 15 43
15 58 l-2 28 -4 -26 c-2 -15 -12 -34 -22 -43 -18 -16 -19 -15 -25 9 -4 14 -11
25 -16 25 -6 0 -10 7 -10 16 0 30 -16 5 -18 -29 -2 -27 2 -36 18 -40 11 -3 20
-10 20 -16 0 -17 -37 -13 -44 5 -9 22 -28 6 -20 -18 5 -18 4 -19 -18 -7 -14 7
-18 14 -10 17 17 5 15 22 -3 22 -9 0 -15 -9 -15 -23 0 -13 -6 -32 -14 -42 -13
-18 -14 -18 -21 4 -5 16 -3 26 6 32 7 4 11 11 7 14 -4 4 -18 -12 -33 -35 -20
-32 -24 -45 -15 -55 9 -11 7 -16 -10 -25 -21 -11 -44 -5 -36 9 3 4 -1 8 -9 8
-11 0 -12 -4 -2 -21 6 -12 10 -27 8 -35 -1 -7 2 -10 8 -6 6 3 11 2 11 -4 0 -5
-9 -9 -19 -8 -16 1 -18 5 -10 19 5 10 7 18 4 18 -15 0 -34 -29 -37 -55 -4 -36
-21 -42 -37 -13 -9 17 -10 18 -5 3 3 -11 8 -24 10 -30 3 -9 -30 -38 -76 -66
-13 -8 -11 -12 10 -28 27 -21 25 -29 -9 -36 -11 -2 -26 -7 -31 -10 -6 -3 -10
-2 -10 4 0 5 9 13 20 16 11 3 20 11 20 16 0 6 -8 6 -20 -1 -18 -10 -18 -7 5
42 32 71 156 230 173 223 7 -3 10 0 7 6 -9 13 25 50 38 42 6 -3 7 -1 3 6 -5 7
42 61 128 146 106 105 139 132 156 128 11 -3 20 -9 20 -14z m-3765 -9 c3 -5 1
-10 -4 -10 -6 0 -11 5 -11 10 0 6 2 10 4 10 3 0 8 -4 11 -10z m3778 -79 c-11
-8 -34 -83 -27 -90 3 -3 7 5 11 17 3 12 10 22 15 22 5 0 6 10 2 23 -6 22 -6
22 15 -2 24 -27 25 -30 10 -51 -8 -12 -9 -10 -4 8 3 12 2 22 -3 22 -14 0 -21
-35 -10 -54 6 -11 4 -21 -7 -32 -15 -15 -17 -15 -30 2 -10 14 -14 15 -15 5 0
-8 -2 -12 -5 -9 -3 3 4 44 17 91 16 63 25 82 31 70 6 -9 6 -18 0 -22z m-3813
-68 c-10 -16 -11 -15 -6 7 3 14 6 32 7 40 1 8 4 5 6 -7 2 -12 -1 -30 -7 -40z
m211 -28 c33 0 34 -2 34 -40 1 -40 1 -40 38 -37 20 2 37 -1 38 -5 3 -32 7 -51
13 -73 4 -17 1 -14 -12 10 -10 19 -23 34 -30 33 -17 -4 -96 74 -83 82 6 3 9
11 5 16 -4 6 -11 6 -20 -2 -15 -12 -26 -7 -30 14 -1 7 -5 26 -8 42 -6 27 -5
27 7 -5 12 -30 18 -35 48 -35z m261 -77 c-9 -9 -12 -7 -12 9 0 12 -5 25 -11
29 -8 4 -9 0 -4 -15 4 -13 2 -21 -5 -21 -6 0 -8 5 -4 12 5 8 2 9 -9 5 -22 -8
-22 9 1 22 23 14 63 -22 44 -41z m3378 17 c0 -8 -7 -15 -15 -15 -16 0 -20 12
-8 23 11 12 23 8 23 -8z m-3455 -5 c-3 -5 -1 -10 4 -10 6 0 11 -9 11 -20 0
-11 -7 -20 -15 -20 -15 0 -21 40 -8 53 10 10 15 8 8 -3z m3360 -37 c-4 -27 -3
-32 4 -18 6 14 8 0 6 -43 -1 -34 -6 -66 -10 -70 -4 -4 -6 12 -3 36 2 29 0 41
-8 38 -8 -3 -9 8 -3 37 5 23 8 45 9 50 0 4 2 7 5 7 3 0 3 -17 0 -37z m-3222
-43 c-3 -3 -8 1 -10 8 -3 7 -11 19 -19 26 -8 8 -14 18 -14 23 1 4 12 -5 25
-22 13 -16 21 -32 18 -35z m-29 17 c15 -19 26 -38 26 -44 0 -12 45 -55 51 -49
2 3 16 -17 29 -42 l25 -47 -24 0 c-26 0 -81 42 -81 62 0 7 8 14 18 14 16 1 16
2 0 6 -10 2 -18 11 -18 19 0 8 -4 14 -10 14 -14 0 -12 -27 3 -33 6 -3 8 -6 2
-6 -27 -2 -36 15 -24 43 9 19 10 29 1 38 -8 8 -10 6 -6 -9 6 -22 -20 -51 -31
-33 -3 5 -6 23 -6 38 3 74 8 78 45 29z m-244 -2 c18 -20 21 -28 12 -37 -21
-21 -13 -32 10 -12 18 16 21 17 15 2 -4 -11 -2 -15 6 -12 7 2 13 -4 14 -16 1
-11 -2 -20 -8 -20 -5 0 -9 6 -10 13 0 8 -2 8 -6 -2 -5 -11 -7 -11 -14 0 -8 12
-10 12 -18 0 -6 -10 -9 0 -7 30 2 34 -2 48 -17 62 -11 9 -16 17 -10 17 5 0 20
-11 33 -25z m3255 4 c-5 -16 -4 -19 5 -14 8 5 11 4 6 -3 -4 -6 -13 -9 -21 -6
-11 5 -12 11 -4 25 13 26 22 24 14 -2z m-3134 -29 c5 -3 0 -11 -10 -17 -15
-10 -17 -7 -13 21 3 17 7 24 10 16 3 -8 9 -17 13 -20z m3299 10 c0 -20 -29
-47 -50 -47 -9 0 -16 8 -16 18 0 17 1 17 19 1 16 -14 19 -14 17 -2 -5 31 0 47
15 47 8 0 15 -8 15 -17z m-3514 -46 c-1 -20 4 -38 10 -41 7 -2 10 -12 7 -21
-2 -10 7 -28 22 -42 22 -21 28 -22 35 -10 14 22 12 34 -3 21 -11 -8 -18 -6
-31 8 -19 21 -7 37 29 40 11 1 34 3 50 5 17 2 36 4 43 5 8 0 10 6 6 14 -6 10
-4 10 7 0 9 -10 10 -16 2 -24 -6 -6 -9 -18 -6 -26 4 -9 -2 -16 -16 -20 -28 -7
-29 -43 -1 -38 11 2 20 0 20 -6 0 -5 -3 -9 -8 -9 -4 0 -7 -13 -7 -30 -1 -16 3
-30 7 -30 4 0 8 10 8 22 0 30 7 19 13 -19 3 -18 1 -33 -4 -33 -4 0 -6 -8 -2
-17 5 -15 3 -15 -10 2 -13 17 -13 20 1 31 12 9 11 11 -9 9 -13 -1 -32 5 -42
14 -22 19 -45 57 -28 47 6 -4 11 -1 12 6 0 10 2 10 6 1 2 -7 9 -13 14 -13 4 0
6 6 3 14 -6 15 -45 18 -55 4 -3 -4 -31 19 -63 52 -32 33 -51 58 -42 54 12 -5
15 -2 10 12 -5 16 -4 17 6 4 9 -12 11 -11 9 10 -2 30 0 40 5 40 2 0 3 -16 2
-36z m405 5 c9 -18 9 -19 -10 -7 -12 7 -21 19 -21 26 0 17 17 7 31 -19z m3349
21 c0 -3 -10 -16 -23 -28 -18 -17 -26 -19 -35 -10 -7 7 -12 16 -12 22 0 5 6 2
13 -8 13 -17 14 -17 28 0 12 16 12 17 -2 12 -9 -4 -16 -1 -16 7 0 7 11 13 24
13 13 0 23 -4 23 -8z m-3521 -31 c-5 -10 -16 -16 -24 -13 -11 4 -11 9 -2 18
18 20 38 16 26 -5z m3337 -8 c0 -11 -5 -17 -13 -14 -10 4 -11 9 -2 19 15 18
15 18 15 -5z m83 -66 l-44 -45 0 38 c0 29 4 38 17 39 10 1 18 -5 18 -13 0 -8
5 -12 10 -9 6 4 7 11 4 17 -4 7 -2 8 5 4 6 -4 14 0 17 9 4 9 9 13 12 10 3 -3
-14 -26 -39 -50z m-3459 10 c-7 -19 -6 -23 5 -18 8 3 12 10 8 17 -3 6 3 3 14
-7 24 -21 22 -56 -5 -97 l-16 -25 -11 35 c-5 19 -14 41 -18 48 -5 7 -4 19 3
27 6 8 9 18 6 24 -5 8 0 13 21 20 1 1 -2 -10 -7 -24z m98 5 c7 -12 16 -19 20
-16 10 6 8 -42 -3 -51 -4 -5 -6 -3 -3 2 10 17 -11 58 -26 52 -16 -6 -40 16
-29 26 12 13 28 7 41 -13z m22 10 c0 -5 -2 -10 -4 -10 -3 0 -8 5 -11 10 -3 6
-1 10 4 10 6 0 11 -4 11 -10z m3106 -2 c5 -8 2 -9 -11 -5 -9 4 -24 2 -31 -4
-9 -7 -14 -8 -14 -1 0 20 45 29 56 10z m104 -29 c0 -6 -5 -7 -12 -3 -7 5 -9 2
-5 -9 4 -11 2 -14 -9 -10 -7 3 -14 0 -14 -7 0 -9 -3 -10 -13 -1 -8 6 -18 7
-22 3 -5 -4 -5 -1 -1 6 5 7 15 11 23 8 10 -4 13 -2 10 8 -4 10 -1 13 9 9 7 -3
14 0 14 7 0 6 5 8 10 5 6 -3 10 -11 10 -16z m-184 -54 c18 -13 15 -18 -61 -92
-44 -43 -67 -64 -52 -47 19 21 26 37 21 50 -5 15 -4 16 4 5 9 -12 13 -12 26
-2 9 7 13 18 9 24 -3 5 -2 7 4 4 13 -8 59 40 48 50 -4 5 -10 2 -12 -4 -3 -7
-9 -13 -15 -13 -6 0 -6 6 2 15 8 10 9 15 2 15 -6 0 -16 -8 -21 -17 -6 -10 -11
-13 -11 -7 0 11 20 34 30 34 3 0 15 -7 26 -15z m107 -5 c3 -11 1 -20 -4 -20
-5 0 -9 9 -9 20 0 11 2 20 4 20 2 0 6 -9 9 -20z m118 3 c13 -16 12 -17 -3 -4
-17 13 -22 21 -14 21 2 0 10 -8 17 -17z m-3189 -6 c5 9 3 -2 -6 -37 -6 -23 -6
-24 7 -7 18 21 26 7 21 -36 -2 -20 1 -27 10 -24 15 6 25 0 45 -26 12 -15 12
-17 -3 -11 -9 3 -16 1 -16 -5 0 -6 3 -10 8 -10 20 3 32 -2 32 -16 0 -8 5 -15
10 -15 6 0 10 -19 11 -42 0 -33 2 -38 9 -23 8 18 9 17 9 -7 1 -16 -3 -28 -8
-28 -6 0 -36 44 -67 98 -31 53 -67 111 -79 127 -35 48 -41 62 -17 41 19 -17
22 -17 22 -3 0 10 -4 17 -10 17 -5 0 -10 5 -10 11 0 8 4 8 14 0 8 -7 16 -8 18
-4z m3101 -28 c29 -1 55 -1 60 0 16 2 5 -18 -13 -24 -12 -4 -17 -11 -13 -18 4
-7 -1 -6 -11 2 -15 12 -19 12 -32 -2 -8 -9 -9 -12 -2 -7 7 6 15 10 18 10 13 0
6 -30 -10 -45 -18 -16 -19 -13 -21 37 0 10 -5 21 -11 24 -7 5 -8 2 -3 -7 6
-10 5 -11 -3 -4 -7 6 -13 24 -15 40 -3 17 -2 22 0 13 3 -14 16 -18 56 -19z
m73 19 c12 -14 13 -18 3 -10 -9 6 -18 10 -21 7 -2 -3 -5 2 -5 10 0 19 0 19 23
-7z m-3050 -52 c6 -42 4 -46 -15 -46 -12 0 -21 5 -21 10 0 6 7 10 15 10 12 0
14 8 9 43 -4 23 -4 39 0 36 4 -4 9 -27 12 -53z m55 18 c7 -9 40 -34 74 -55 33
-21 65 -42 70 -47 6 -5 19 -14 30 -20 11 -6 15 -12 10 -12 -6 0 -27 11 -46 24
-23 16 -45 23 -60 20 -13 -2 -18 -2 -11 2 6 3 12 10 12 15 0 5 -12 3 -27 -5
-25 -13 -28 -12 -45 9 -10 13 -18 36 -18 52 0 22 -2 25 -10 13 -8 -13 -10 -12
-10 3 0 21 13 22 31 1z m2665 -40 c-3 -8 -1 -14 5 -14 6 0 7 -5 4 -11 -9 -14
-16 -6 -19 25 -2 14 1 23 6 20 5 -3 7 -12 4 -20z m-2689 -6 c-3 -8 -6 -5 -6 6
-1 11 2 17 5 13 3 -3 4 -12 1 -19z m2533 12 c0 -5 -10 -10 -22 -10 -20 0 -20
-1 -5 -12 13 -10 14 -20 8 -48 -8 -31 -9 -32 -10 -8 -1 15 -5 29 -10 32 -22
14 -1 45 37 55 1 1 2 -3 2 -9z m-73 -51 c-7 -19 -13 -25 -15 -16 -2 9 -9 14
-18 10 -7 -3 -12 -9 -9 -13 8 -13 -11 -21 -30 -14 -13 5 -5 13 32 35 26 16 49
29 50 29 1 0 -4 -14 -10 -31z m110 -11 c-3 -8 -6 -5 -6 6 -1 11 2 17 5 13 3
-3 4 -12 1 -19z m-90 -10 c-3 -8 -6 -5 -6 6 -1 11 2 17 5 13 3 -3 4 -12 1 -19z
m-2498 -30 c-1 -37 -2 -39 -9 -18 -12 36 -12 60 0 60 6 0 10 -19 9 -42z m2676
15 c3 -9 0 -21 -6 -27 -8 -8 -10 -7 -7 4 3 8 -2 23 -10 33 -14 16 -14 17 0 12
9 -4 19 -14 23 -22z m-2498 -3 c14 -11 32 -20 40 -20 8 0 12 -4 8 -10 -7 -11
-51 7 -79 32 -28 25 -1 23 31 -2z m-428 -126 c23 -47 40 -92 37 -100 -3 -8 -2
-13 3 -10 9 6 55 -114 47 -122 -3 -2 -10 14 -17 37 -6 22 -15 38 -20 36 -4 -3
-5 5 -3 17 l5 23 -12 -22 c-7 -13 -16 -23 -20 -23 -4 0 -10 10 -12 23 -2 12
-5 2 -6 -23 -2 -47 -19 -102 -20 -67 -1 20 -24 23 -40 3 -9 -10 -8 -16 4 -26
12 -10 15 -10 15 0 0 8 3 11 6 7 9 -8 -18 -77 -28 -71 -4 3 -8 13 -8 23 0 10
-7 25 -16 32 -15 12 -16 11 -9 -11 4 -14 9 -42 10 -63 1 -21 6 -41 10 -45 4
-4 5 7 2 25 -5 26 -4 31 9 26 12 -4 14 -15 10 -42 -3 -20 -3 -30 0 -23 3 6 10
10 15 6 5 -3 3 -15 -6 -27 -18 -25 -20 -41 -4 -31 6 4 9 -1 8 -12 -5 -26 8
-44 31 -44 10 0 21 -7 24 -16 5 -13 2 -15 -14 -11 -11 3 -20 1 -20 -4 0 -5 5
-9 10 -9 6 0 10 -6 10 -14 0 -18 47 -49 54 -35 2 5 3 4 2 -3 -2 -7 -10 -12
-19 -12 -14 1 -13 -3 6 -26 12 -15 28 -25 36 -22 9 3 12 1 7 -6 -7 -11 39 -61
57 -62 18 0 4 29 -15 32 -26 3 -31 29 -8 35 13 4 13 3 0 -6 -8 -5 -11 -13 -7
-17 11 -11 31 12 22 26 -4 6 -13 9 -21 6 -18 -7 -64 10 -64 24 0 7 18 10 48 8
l47 -3 12 -55 c6 -30 12 -57 12 -60 1 -3 6 2 11 10 8 13 10 12 10 -2 0 -21
-11 -23 -28 -6 -23 23 -11 -7 14 -37 22 -26 25 -27 19 -7 -3 12 -4 22 -2 22 2
0 14 -30 27 -67 47 -143 116 -287 194 -405 27 -42 12 -34 -38 20 -37 40 -68
77 -170 202 -6 9 -27 37 -44 63 -28 39 -31 50 -22 68 11 20 12 20 26 2 10 -13
9 -7 -2 19 -10 20 -23 39 -31 42 -10 4 -11 1 -3 -14 16 -29 -26 -39 -51 -11
-11 11 -19 23 -19 26 1 20 -2 24 -19 30 -10 3 -18 13 -17 23 0 9 -4 16 -11 15
-15 -3 -59 57 -55 75 2 8 -14 41 -36 75 -87 137 -82 122 -82 263 0 187 21 332
62 438 l12 29 21 -27 c12 -15 40 -65 64 -112z m2628 117 c-1 -16 -4 -17 -15
-9 -10 9 -11 13 0 19 17 11 17 12 15 -10z m183 -45 c-6 -6 -10 -17 -10 -25 0
-23 17 -1 35 44 l15 40 -6 -40 c-3 -22 -10 -44 -15 -49 -5 -6 -9 -24 -9 -42 0
-17 -7 -37 -15 -44 -13 -10 -15 -9 -15 11 0 19 2 21 10 9 7 -11 10 -7 10 18 0
20 -4 31 -10 27 -6 -4 -10 7 -10 24 0 17 4 31 10 31 5 0 7 15 5 33 l-5 32 10
-30 c6 -19 6 -33 0 -39z m-113 40 c0 -8 -8 -11 -21 -8 -19 5 -19 6 0 13 10 4
19 8 20 8 0 1 1 -5 1 -13z m507 -18 c3 -18 13 -113 22 -211 13 -144 14 -187 4
-220 -7 -23 -16 -67 -20 -97 l-7 -55 -2 53 c0 33 -5 51 -11 47 -5 -3 -10 1
-10 9 0 9 3 15 8 15 24 -4 33 3 27 21 -4 11 -2 20 4 20 6 0 10 18 10 43 -1 39
-2 40 -9 12 -5 -19 -7 -1 -5 50 2 61 1 69 -5 35 l-7 -45 -1 54 c-2 58 -8 64
-16 17 -3 -16 -10 -32 -16 -36 -8 -5 -6 -9 4 -13 25 -10 19 -36 -11 -50 -16
-6 -31 -16 -36 -22 -5 -6 -13 -3 -22 9 -11 14 -15 16 -15 5 0 -8 -3 -24 -6
-36 -6 -21 -4 -22 27 -13 45 13 66 12 72 -2 3 -10 -8 -12 -43 -10 l-47 4 2
-52 c1 -29 0 -47 -4 -42 -9 16 -27 1 -34 -28 -3 -14 -14 -56 -24 -95 -10 -38
-18 -97 -17 -130 1 -52 0 -56 -8 -31 l-11 29 -13 -31 c-16 -40 -5 -83 27 -99
22 -12 21 -13 -23 -13 -44 0 -47 -2 -58 -35 -6 -19 -22 -54 -34 -77 l-23 -43
26 -2 c23 -2 27 2 28 25 0 15 -1 19 -4 10 -2 -10 -9 -18 -14 -18 -12 0 -11 4
3 35 8 18 14 22 19 13 5 -7 14 -13 20 -13 7 0 14 -6 17 -14 3 -9 0 -12 -10 -9
-8 4 -15 0 -15 -7 0 -10 5 -11 19 -4 10 5 18 13 18 18 0 12 -26 32 -33 25 -3
-3 -8 4 -12 16 -4 12 -2 27 4 33 16 16 71 10 85 -9 9 -12 15 -14 20 -6 4 7 2
12 -5 12 -7 0 -5 8 7 22 16 18 17 21 2 15 -12 -4 -15 -2 -11 9 4 11 9 12 16 5
15 -15 30 -14 21 1 -4 7 -3 8 5 4 6 -4 14 0 17 9 5 11 10 13 19 5 8 -7 18 -3
35 15 13 14 19 25 13 25 -6 0 -16 -7 -23 -15 -14 -17 -34 -10 -26 10 2 7 0 17
-5 22 -8 8 37 11 83 5 7 -1 -12 -26 -41 -56 -30 -30 -59 -52 -66 -49 -7 2 -12
-2 -12 -9 1 -7 -30 -44 -70 -81 -61 -59 -74 -67 -91 -58 -14 8 -24 7 -38 -4
-17 -13 -16 -14 14 -9 17 4 32 4 32 1 0 -9 -201 -187 -225 -199 -19 -10 -19
-10 -3 8 26 31 103 192 137 287 31 90 88 312 136 537 38 175 95 314 178 433
22 31 43 57 47 57 4 0 10 -15 14 -32z m-2692 10 c7 -7 37 -25 66 -39 51 -26
52 -27 26 -33 -25 -7 -26 -8 -8 -22 17 -13 16 -13 -9 -2 -27 11 -27 13 -11 25
10 7 15 16 11 20 -4 3 -17 -2 -28 -13 -22 -19 -22 -19 -17 9 5 28 -2 32 -46
28 -15 -1 -16 2 -7 12 6 8 8 17 4 20 -12 13 5 7 19 -5z m2098 -9 c0 -5 -4 -9
-10 -9 -5 0 -10 6 -10 13 0 8 -2 9 -8 1 -4 -6 -17 -14 -29 -18 -15 -5 -20 -12
-16 -24 5 -14 4 -15 -8 -6 -10 8 -25 7 -54 -3 l-40 -13 40 5 c29 4 36 3 25 -4
-8 -6 -22 -11 -31 -11 -9 0 -22 -7 -29 -15 -6 -8 -22 -13 -33 -12 -16 1 -21
-3 -19 -15 2 -10 -2 -18 -7 -18 -6 0 -8 -6 -5 -14 4 -10 -1 -12 -18 -9 -13 2
-37 -3 -53 -11 -20 -10 -24 -16 -12 -16 9 0 17 -4 17 -9 0 -5 8 -12 18 -14 15
-4 15 -5 0 -6 -9 0 -20 4 -23 9 -3 6 -21 9 -38 9 -27 -2 -28 -2 -7 -6 13 -3
34 -12 45 -20 15 -12 16 -14 3 -10 -10 4 -30 0 -45 -8 -31 -17 -56 -20 -33 -5
13 8 13 10 -1 10 -9 0 -24 -9 -34 -20 -10 -11 -22 -20 -27 -20 -5 0 -41 -16
-79 -35 -39 -19 -67 -29 -63 -23 38 65 56 88 64 83 5 -3 8 0 5 7 -2 7 3 22 13
33 23 28 168 99 183 89 7 -4 9 -3 6 3 -6 9 57 36 77 33 5 -1 12 2 15 7 3 5 42
24 86 41 44 18 86 36 94 41 16 10 41 4 41 -10z m279 -26 c-38 -50 -59 -74 -59
-68 0 8 62 85 68 85 2 0 -2 -8 -9 -17z m-2598 -29 c-5 -16 -10 -21 -10 -12 -1
18 10 51 15 45 2 -1 -1 -16 -5 -33z m2450 -12 c0 -12 3 -9 10 7 12 30 24 21
13 -11 -4 -13 -7 -27 -5 -32 1 -6 -1 -21 -4 -35 -6 -25 -7 -25 -21 -7 -8 11
-14 25 -14 30 0 6 7 2 16 -9 15 -20 15 -20 5 34 -1 2 -7 -2 -14 -8 -8 -6 -17
-7 -22 -3 -4 4 -3 -3 4 -15 6 -12 8 -30 5 -40 -4 -13 -3 -14 4 -5 7 11 10 11
15 -2 7 -17 -5 -18 -160 -20 -28 -1 -47 -4 -41 -7 5 -3 -23 -9 -64 -13 -40 -4
-82 -9 -93 -10 -11 -2 -14 -1 -6 1 9 3 10 7 3 12 -5 3 19 6 55 6 51 0 67 4 74
18 6 9 18 17 28 17 10 0 30 9 44 20 14 11 37 20 52 20 15 0 24 4 20 10 -7 12
33 29 58 24 12 -2 17 4 17 22 0 28 20 24 21 -4z m-2073 -1 c8 -5 -1 -8 -25 -9
-29 0 -33 2 -18 8 26 11 28 11 43 1z m1832 -15 c0 -2 -11 -6 -25 -8 -13 -3
-22 -1 -19 3 5 9 44 13 44 5z m-1933 -12 c-3 -3 -12 -4 -19 -1 -8 3 -5 6 6 6
11 1 17 -2 13 -5z m176 -13 c20 -7 37 -16 37 -21 0 -4 7 -7 16 -6 9 0 18 -5
20 -12 1 -7 0 -8 -3 -2 -8 16 -23 12 -17 -5 4 -8 14 -15 23 -16 9 0 11 -3 4
-5 -7 -3 -9 -12 -6 -20 3 -8 0 -14 -6 -14 -6 0 -11 8 -11 17 0 9 -3 14 -6 10
-3 -3 1 -26 9 -51 l15 -45 -56 27 c-31 15 -58 30 -60 34 -2 4 -10 4 -19 1 -11
-4 -14 -2 -9 5 3 6 -2 15 -11 21 -10 6 -12 11 -5 11 7 0 12 15 12 39 0 22 -5
41 -12 44 -7 2 1 4 17 3 17 -1 47 -8 68 -15z m-318 -1 c25 -11 -1 -11 -35 0
-20 6 -21 8 -5 8 11 0 29 -3 40 -8z m78 0 c15 -1 9 -6 -18 -16 -68 -26 -74
-27 -91 -10 -15 15 -13 16 27 10 38 -6 42 -5 36 11 -6 13 -3 16 9 11 8 -3 25
-6 37 -6z m87 -49 c37 -29 6 -36 -61 -14 -56 19 -67 36 -27 41 18 2 20 1 8 -7
-18 -13 -8 -24 14 -15 9 4 15 13 12 21 -6 16 12 7 54 -26z m-257 22 c-7 -2
-19 -2 -25 0 -7 3 -2 5 12 5 14 0 19 -2 13 -5z m-686 -75 c-3 -7 -5 -2 -5 12
0 14 2 19 5 13 2 -7 2 -19 0 -25z m1003 12 c18 -12 2 -12 -25 0 -13 6 -15 9
-5 9 8 0 22 -4 30 -9z m184 -27 c-4 -23 -3 -25 6 -13 10 13 11 13 7 -2 -3 -9
-3 -19 1 -22 13 -14 10 -35 -5 -29 -12 5 -12 7 -1 14 8 6 9 9 2 9 -16 0 -26
28 -19 51 10 29 16 22 9 -8z m84 -99 c0 -17 -4 -22 -11 -15 -5 5 -7 17 -4 25
9 23 15 19 15 -10z m-1171 -21 c-3 -10 -5 -4 -5 12 0 17 2 24 5 18 2 -7 2 -21
0 -30z m333 -3 c0 -5 -2 -10 -4 -10 -3 0 -8 5 -11 10 -3 6 -1 10 4 10 6 0 11
-4 11 -10z m861 -4 c-6 -7 -9 -22 -5 -32 5 -17 4 -17 -5 -2 -12 18 -5 48 11
48 7 0 6 -5 -1 -14z m-911 -48 c0 -15 -4 -30 -10 -33 -6 -4 -10 12 -10 42 0
35 3 44 10 33 5 -8 10 -27 10 -42z m67 20 c-3 -7 -5 -2 -5 12 0 14 2 19 5 13
2 -7 2 -19 0 -25z m-350 -38 c8 14 12 17 9 7 -3 -10 -6 -24 -6 -32 0 -7 -9
-15 -19 -18 -16 -4 -19 0 -16 22 2 14 5 35 6 46 1 11 4 4 6 -15 l5 -35 15 25z
m347 10 c8 0 16 -14 20 -31 8 -43 5 -71 -4 -34 -8 30 -8 30 -9 3 0 -14 -5 -28
-9 -30 -5 -1 -12 -20 -15 -41 -3 -22 -2 -35 4 -32 5 4 9 2 9 -4 0 -17 -20 -23
-36 -10 -8 6 -17 9 -21 5 -3 -3 -1 -6 5 -6 7 0 12 -8 12 -19 0 -10 10 -25 22
-33 l22 -15 -27 -5 c-14 -3 -24 -1 -21 4 9 14 -19 68 -36 69 -11 1 -10 3 3 6
12 3 17 15 17 44 0 28 4 39 15 39 9 0 15 -10 16 -27 1 -21 3 -23 6 -8 2 11 11
39 20 63 9 23 13 45 9 49 -3 3 -6 1 -6 -5 0 -6 -6 -9 -14 -6 -8 3 -11 14 -8
32 4 19 7 22 10 10 2 -10 9 -18 16 -18z m-116 -32 c1 -28 0 -30 -9 -15 -6 10
-8 25 -5 33 8 21 12 17 14 -18z m1042 -1 c0 -7 -4 -6 -10 3 -7 11 -10 11 -10
2 0 -7 -5 -10 -11 -6 -8 4 -7 9 2 15 15 9 29 3 29 -14z m-15 -27 c-3 -5 -12
-10 -18 -10 -7 0 -6 4 3 10 19 12 23 12 15 0z m-1251 -35 c-5 -20 -9 -24 -18
-14 -8 8 -8 13 2 16 6 3 12 12 12 21 0 8 2 13 5 10 4 -3 3 -18 -1 -33z m276
26 c0 -6 -4 -13 -10 -16 -5 -3 -10 1 -10 9 0 9 5 16 10 16 6 0 10 -4 10 -9z
m985 -10 c-3 -5 -1 -12 5 -16 5 -3 10 -11 10 -18 0 -6 -6 -2 -14 8 -13 18 -13
35 0 35 3 0 3 -4 -1 -9z m2232 -53 c-2 -13 -4 -5 -4 17 -1 22 1 32 4 23 2 -10
2 -28 0 -40z m-2151 7 c-2 -20 -7 -39 -11 -43 -4 -4 -4 3 -1 16 5 13 3 22 -3
22 -8 0 -7 7 1 20 7 11 14 20 15 20 1 0 0 -16 -1 -35z m759 27 c-3 -3 1 -12 7
-21 8 -10 4 -9 -10 3 -19 17 -22 17 -22 3 0 -10 5 -17 11 -17 8 0 8 -5 -1 -15
-9 -10 -9 -15 -1 -15 6 0 11 -4 11 -8 0 -5 -6 -9 -13 -9 -8 0 -12 13 -11 36 1
47 2 48 19 48 8 0 13 -3 10 -5z m1356 -152 c5 0 9 -8 9 -17 0 -15 -2 -14 -14
3 -9 12 -17 55 -20 100 l-5 79 11 -82 c6 -46 15 -83 19 -83z m-3104 98 c-2
-13 -4 -5 -4 17 -1 22 1 32 4 23 2 -10 2 -28 0 -40z m20 20 c-3 -7 -5 -2 -5
12 0 14 2 19 5 13 2 -7 2 -19 0 -25z m927 7 c-4 -8 -1 -15 5 -15 6 0 11 -4 11
-10 0 -5 -4 -10 -9 -10 -12 0 -23 29 -15 41 9 14 14 10 8 -6z m-1344 -63 c0
-13 4 -20 10 -17 6 3 10 2 10 -4 0 -5 -3 -12 -7 -14 -5 -3 -6 -30 -5 -61 3
-36 8 -54 14 -49 6 3 8 1 5 -4 -4 -6 2 -21 13 -33 11 -13 20 -28 20 -34 0 -5
-14 9 -31 32 -35 48 -49 50 -25 3 9 -16 16 -39 16 -49 0 -11 9 -31 21 -46 11
-14 18 -32 16 -39 -3 -7 -6 -5 -6 6 -1 9 -5 17 -10 17 -5 0 -4 -17 1 -40 6
-22 14 -40 19 -40 5 0 6 -6 3 -13 -7 -19 31 -169 40 -160 5 4 3 -2 -3 -15 -10
-19 -10 -27 2 -40 8 -9 12 -23 9 -31 -2 -8 0 -11 6 -7 6 3 14 1 18 -5 4 -7 3
-9 -4 -5 -5 3 -12 0 -15 -6 -2 -7 -14 9 -26 36 -12 27 -19 51 -17 54 3 2 -1
17 -9 33 -35 66 -96 421 -95 551 1 51 1 52 15 28 8 -14 14 -35 15 -48z m2220
59 c0 -6 -4 -13 -10 -16 -5 -3 -10 -12 -10 -18 0 -8 4 -7 9 2 12 19 49 -23 87
-96 14 -29 30 -53 34 -53 21 0 40 -35 40 -73 0 -43 -19 -107 -31 -107 -4 0
-11 -21 -15 -47 -7 -55 -57 -120 -183 -240 -120 -115 -162 -132 -385 -158
-115 -14 -169 -12 -192 7 -7 5 -20 10 -30 12 -34 7 -115 58 -151 95 -82 83
-154 228 -168 339 -2 19 -7 43 -10 53 -4 11 -2 19 4 19 6 0 11 21 11 49 0 65
36 181 56 181 8 0 13 4 9 9 -3 5 -1 12 4 15 10 6 31 -17 171 -184 52 -62 107
-126 123 -142 15 -16 27 -34 27 -40 0 -19 99 -189 137 -236 l35 -43 25 23 c14
13 51 78 83 145 32 67 66 130 74 140 50 61 105 143 169 251 65 111 87 139 87
113z m1309 -37 c3 3 3 -37 -1 -87 -7 -76 -12 -95 -29 -110 -12 -10 -19 -20
-16 -24 4 -3 14 0 23 8 16 13 16 12 4 -8 -19 -30 -38 -13 -35 30 2 17 3 39 4
47 1 13 2 13 11 0 13 -20 13 -33 0 -25 -5 3 -10 1 -10 -5 0 -7 6 -10 13 -8 16
6 25 49 25 123 0 50 -2 55 -9 30 -7 -26 -8 -25 -4 10 3 22 6 47 6 55 1 8 4 3
6 -13 2 -15 8 -25 12 -23z m-3489 -12 c0 -22 2 -24 11 -12 7 10 9 11 7 2 -6
-21 -22 -15 -30 10 -3 13 -6 17 -7 9 -1 -8 -3 -12 -6 -9 -9 8 6 38 16 32 5 -3
9 -17 9 -32z m3337 -48 c-2 -13 0 -24 4 -24 5 0 9 -18 9 -40 0 -29 -4 -40 -15
-40 -11 0 -15 11 -15 38 0 20 -5 44 -10 52 -8 12 -10 12 -10 1 0 -8 -2 -12 -4
-10 -3 2 0 26 6 54 l10 49 15 -28 c8 -16 13 -39 10 -52z m-1992 44 c5 4 5 1 1
-6 -6 -10 -11 -10 -22 -1 -8 6 -14 14 -14 16 0 3 6 0 13 -6 8 -6 18 -7 22 -3z
m56 -24 c-9 -28 -9 -29 -10 -3 -1 14 2 29 6 32 11 12 13 2 4 -29z m641 13 c20
18 21 18 7 -4 -8 -13 -17 -23 -21 -23 -11 0 -38 30 -38 43 0 6 7 1 16 -11 16
-23 17 -23 36 -5z m-1917 -27 c16 -31 18 -40 10 -40 -3 0 -5 2 -5 5 0 3 -7 19
-15 35 -9 17 -13 30 -11 30 3 0 12 -13 21 -30z m265 10 c0 -11 -4 -20 -9 -20
-14 0 -23 18 -16 30 10 17 25 11 25 -10z m1676 -16 c-10 -14 -20 -23 -23 -21
-6 6 30 57 36 51 2 -2 -4 -15 -13 -30z m-1982 -10 c3 -8 2 -12 -4 -9 -6 3 -10
10 -10 16 0 14 7 11 14 -7z m187 -17 c-10 -9 -11 -8 -5 6 3 10 9 15 12 12 3
-3 0 -11 -7 -18z m1752 6 c-5 -2 -8 -15 -5 -28 5 -28 -24 -79 -39 -69 -6 3
-17 -2 -24 -12 -22 -29 -18 -39 7 -18 l22 19 -19 -26 c-21 -28 -50 -36 -39
-10 3 9 8 25 11 36 3 16 1 15 -11 -5 -11 -19 -15 -21 -16 -8 0 22 17 32 55 33
27 1 30 4 31 35 1 44 13 72 27 63 8 -5 8 -8 0 -10z m-555 -26 c28 -28 32 -39
28 -70 -3 -22 -1 -35 5 -31 5 3 7 10 4 15 -8 12 25 12 44 0 17 -11 25 -81 10
-81 -6 0 -8 4 -5 9 3 5 -1 12 -10 15 -10 4 -13 2 -8 -7 4 -6 -9 4 -29 23 -24
23 -33 39 -28 49 10 17 3 51 -11 51 -5 0 -6 -9 -3 -20 3 -11 3 -20 -2 -20 -4
0 -14 9 -21 20 -10 17 -10 20 4 20 9 0 14 5 12 11 -2 6 -7 10 -12 9 -9 -2 -26
19 -26 33 0 15 17 6 48 -26z m-1601 1 c-3 -8 -6 -5 -6 6 -1 11 2 17 5 13 3 -3
4 -12 1 -19z m1543 0 c0 -6 -6 -5 -15 2 -8 7 -15 14 -15 16 0 2 7 1 15 -2 8
-4 15 -11 15 -16z m95 11 c11 -17 -1 -21 -15 -4 -8 9 -8 15 -2 15 6 0 14 -5
17 -11z m-1098 -31 c-3 -8 -6 -5 -6 6 -1 11 2 17 5 13 3 -3 4 -12 1 -19z
m-237 -11 c0 -6 7 -19 17 -29 9 -10 14 -20 12 -22 -2 -2 -17 13 -32 35 -18 25
-23 37 -13 33 9 -3 16 -11 16 -17z m247 -39 c-3 -8 -6 -5 -6 6 -1 11 2 17 5
13 3 -3 4 -12 1 -19z m-565 -5 c-6 -2 -10 -9 -6 -14 3 -5 -12 -8 -33 -8 -33 2
-34 3 -9 6 22 4 26 7 15 14 -10 6 -6 9 16 8 17 0 24 -3 17 -6z m197 -48 c0 -5
-4 -3 -9 5 -5 8 -9 22 -9 30 0 16 17 -16 18 -35z m204 -64 l77 -100 -26 -20
c-15 -12 -31 -21 -35 -21 -5 0 -12 0 -16 0 -5 0 -8 3 -9 8 0 4 -8 23 -17 42
-8 19 -23 65 -33 102 -14 53 -20 64 -29 52 -9 -13 -11 -12 -11 5 0 11 5 17 10
14 5 -4 7 1 3 11 -12 30 7 10 86 -93z m1351 10 c-5 -30 -3 -39 11 -45 10 -3
15 -12 12 -20 -3 -8 -2 -17 4 -20 5 -2 4 -3 -3 -2 -7 2 -12 11 -11 20 0 11 -4
15 -14 12 -8 -3 -12 -2 -9 3 3 4 -2 17 -10 27 -15 19 -15 19 -10 0 6 -16 4
-17 -9 -6 -16 13 -21 35 -6 26 9 -6 26 22 23 37 -1 4 5 7 13 7 12 0 14 -8 9
-39z m-1704 19 c-13 -8 -12 -10 3 -10 22 0 20 -31 -3 -38 -13 -5 -13 -3 -1 11
12 15 11 17 -3 17 -16 0 -21 12 -9 23 3 4 11 7 17 7 6 0 4 -5 -4 -10z m104 -6
c3 -8 2 -12 -4 -9 -6 3 -10 10 -10 16 0 14 7 11 14 -7z m46 -9 c13 -14 21 -25
18 -25 -2 0 -15 11 -28 25 -13 14 -21 25 -18 25 2 0 15 -11 28 -25z m-183 -4
c1 -13 -3 -18 -12 -15 -8 3 -11 12 -8 20 7 20 18 17 20 -5z m3394 -8 c-8 -15
-10 -15 -11 -2 0 17 10 32 18 25 2 -3 -1 -13 -7 -23z m-3315 -73 c-2 -8 -4 -3
-5 13 0 15 -5 27 -10 27 -4 0 -6 12 -3 28 5 26 6 25 14 -13 5 -22 7 -46 4 -55z
m-166 69 c-11 -8 -6 -9 20 -4 35 6 35 6 10 -9 -18 -10 -29 -11 -37 -4 -18 15
-16 28 5 28 15 0 15 -2 2 -11z m1887 -11 c-3 -8 -6 -5 -6 6 -1 11 2 17 5 13 3
-3 4 -12 1 -19z m-1629 -13 c-3 -3 -9 2 -12 12 -6 14 -5 15 5 6 7 -7 10 -15 7
-18z m149 -12 c-3 -10 -5 -4 -5 12 0 17 2 24 5 18 2 -7 2 -21 0 -30z m-59 -6
c6 -5 12 -13 12 -20 0 -6 -7 -2 -15 9 -13 17 -14 17 -15 2 0 -10 9 -22 20 -28
11 -6 18 -15 15 -20 -3 -5 -1 -11 5 -15 5 -3 10 2 11 12 0 11 3 13 6 5 2 -6
10 -10 16 -6 7 3 4 -1 -5 -9 -10 -8 -14 -18 -10 -23 4 -5 -3 0 -16 10 -12 11
-20 21 -17 24 2 3 -7 13 -20 24 -14 11 -23 23 -20 28 3 5 -1 11 -7 14 -7 2 -4
4 7 3 11 -2 26 -6 33 -10z m1536 -3 c5 -14 4 -15 -9 -4 -17 14 -19 20 -6 20 5
0 12 -7 15 -16z m-1556 -58 c12 -16 22 -34 22 -40 0 -5 -12 9 -27 32 -18 28
-30 38 -35 29 -6 -9 -8 -9 -8 0 0 6 -3 20 -7 30 -6 17 -6 17 13 -1 10 -11 29
-33 42 -50z m-73 35 c3 -5 1 -12 -5 -16 -5 -3 -10 1 -10 9 0 18 6 21 15 7z
m-118 -23 c-3 -8 -6 -5 -6 6 -1 11 2 17 5 13 3 -3 4 -12 1 -19z m43 -47 c0
-11 -3 -11 -15 -1 -8 7 -15 22 -15 33 0 20 0 20 15 1 8 -10 15 -25 15 -33z
m100 14 c0 -5 -5 -3 -10 5 -5 8 -10 20 -10 25 0 6 5 3 10 -5 5 -8 10 -19 10
-25z m30 -15 c-6 -4 -8 -13 -5 -22 3 -8 -2 -21 -12 -29 -16 -13 -17 -12 -4 4
11 14 11 20 1 32 -9 11 -10 15 -1 15 8 0 10 8 6 23 -6 21 -6 21 9 3 10 -13 12
-22 6 -26z m-173 -2 c-3 -7 -5 -2 -5 12 0 14 2 19 5 13 2 -7 2 -19 0 -25z
m1845 -32 c-23 -18 -24 -18 -46 3 -24 22 -31 55 -11 47 7 -2 18 0 25 4 9 6 21
1 35 -13 l20 -22 -23 -19z m-1545 -8 c0 -23 -12 -12 -12 10 0 9 -5 16 -12 15
-7 -2 -10 4 -6 13 5 13 7 12 18 -3 7 -10 12 -26 12 -35z m13 42 c0 -5 -2 -10
-4 -10 -3 0 -8 5 -11 10 -3 6 -1 10 4 10 6 0 11 -4 11 -10z m-176 -26 c3 -8 2
-12 -4 -9 -6 3 -10 10 -10 16 0 14 7 11 14 -7z m118 -84 c-15 -21 -29 -36 -31
-35 -1 2 4 14 13 26 11 16 12 27 5 41 -5 10 -7 23 -4 29 4 5 1 18 -5 27 -7 9
1 2 18 -17 l30 -33 -26 -38z m-222 73 c0 -14 2 -15 9 -4 5 8 7 -5 4 -35 -7
-62 -13 -70 -13 -16 0 22 -4 44 -10 47 -5 3 -10 10 -10 16 0 5 5 9 10 9 6 0
10 -8 10 -17z m183 3 c4 -10 1 -13 -9 -9 -7 3 -14 9 -14 14 0 14 17 10 23 -5z
m-156 -68 c-3 -7 -5 -2 -5 12 0 14 2 19 5 13 2 -7 2 -19 0 -25z m93 -3 c0 -5
-5 -3 -10 5 -5 8 -10 20 -10 25 0 6 5 3 10 -5 5 -8 10 -19 10 -25z m-133 -12
c-3 -10 -5 -4 -5 12 0 17 2 24 5 18 2 -7 2 -21 0 -30z m423 -18 c0 -5 -5 -3
-10 5 -5 8 -10 20 -10 25 0 6 5 3 10 -5 5 -8 10 -19 10 -25z m-437 -12 c4 -19
2 -33 -3 -33 -6 0 -10 17 -10 37 0 43 5 41 13 -4z m-123 7 c0 -5 -7 -7 -15 -4
-8 4 -15 8 -15 10 0 2 7 4 15 4 8 0 15 -4 15 -10z m304 -16 c4 -10 2 -13 -6
-8 -8 5 -9 2 -4 -11 5 -15 4 -16 -8 -6 -12 10 -13 16 -3 26 15 18 14 18 21 -1z
m235 -5 c6 9 15 3 32 -21 13 -18 27 -36 32 -39 5 -3 1 -9 -9 -13 -9 -4 -22 -2
-28 4 -8 8 -5 9 9 4 19 -7 19 -7 3 13 -10 11 -18 25 -18 31 0 7 -5 12 -11 12
-6 0 -8 -9 -3 -22 3 -13 5 -21 3 -18 -2 3 -15 18 -29 35 -14 16 -17 23 -7 15
15 -11 20 -11 26 -1z m-342 -21 c-3 -8 -6 -5 -6 6 -1 11 2 17 5 13 3 -3 4 -12
1 -19z m413 3 c7 -14 7 -22 0 -26 -6 -4 -10 -3 -9 2 4 21 -2 34 -13 27 -7 -4
-8 -3 -4 4 10 16 14 15 26 -7z m-480 -25 c0 -2 -8 -10 -17 -17 -16 -13 -17
-12 -4 4 13 16 21 21 21 13z m88 -31 c13 -11 -20 -10 -53 1 l-40 12 45 -5 c25
-3 46 -7 48 -8z m417 -5 c3 -5 1 -10 -4 -10 -6 0 -11 5 -11 10 0 6 2 10 4 10
3 0 8 -4 11 -10z m32 -60 c12 0 25 5 29 12 5 7 2 9 -9 5 -11 -4 -14 -2 -10 9
4 11 9 12 19 3 26 -21 16 -39 -20 -39 -28 0 -39 6 -56 33 l-22 32 24 -27 c13
-16 33 -28 45 -28z m-176 18 c11 -21 11 -22 -4 -9 -10 7 -17 17 -17 22 0 15 9
10 21 -13z m167 -3 c-3 -3 -9 2 -12 12 -6 14 -5 15 5 6 7 -7 10 -15 7 -18z"/>
<path d="M84 3578 c0 -50 0 -51 9 -20 6 19 6 40 1 52 -7 15 -9 7 -10 -32z"/>
<path d="M26 3335 c-3 -8 -1 -15 4 -15 6 0 10 7 10 15 0 8 -2 15 -4 15 -2 0
-6 -7 -10 -15z"/>
<path d="M183 3101 c0 -11 5 -18 9 -15 4 3 5 11 1 19 -7 21 -12 19 -10 -4z"/>
<path d="M3788 3421 c-25 -27 -45 -57 -45 -66 0 -11 4 -12 11 -5 18 18 26 11
21 -22 l-5 -33 11 33 c7 25 7 38 -2 48 -6 8 -10 16 -8 17 2 1 12 9 22 16 14
11 20 11 32 1 9 -8 15 -9 15 -2 0 6 -4 14 -10 17 -5 3 -10 12 -9 18 0 9 2 9 6
0 2 -7 9 -13 15 -13 7 0 7 5 -1 13 -6 8 -8 17 -4 20 3 4 4 7 1 7 -4 0 -26 -22
-50 -49z"/>
<path d="M3790 3395 c-14 -16 -10 -18 14 -9 9 3 16 10 16 15 0 14 -16 11 -30
-6z"/>
<path d="M3705 3330 c-3 -5 -2 -10 4 -10 5 0 13 5 16 10 3 6 2 10 -4 10 -5 0
-13 -4 -16 -10z"/>
<path d="M3667 3304 c7 -3 9 -13 6 -22 -5 -13 -3 -14 7 -5 14 13 5 33 -13 32
-9 0 -9 -2 0 -5z"/>
<path d="M3640 3270 c0 -11 2 -20 4 -20 2 0 6 9 9 20 3 11 1 20 -4 20 -5 0 -9
-9 -9 -20z"/>
<path d="M3755 3280 c3 -5 11 -10 16 -10 6 0 7 5 4 10 -3 6 -11 10 -16 10 -6
0 -7 -4 -4 -10z"/>
<path d="M3456 3071 l-30 -36 34 32 c19 18 32 34 29 36 -2 2 -17 -12 -33 -32z"/>
<path d="M3388 2986 c-13 -18 -13 -23 -3 -23 8 0 12 4 9 8 -2 4 1 9 7 11 7 2
10 9 8 15 -2 6 -11 1 -21 -11z"/>
<path d="M290 3240 c0 -5 5 -10 10 -10 6 0 10 5 10 10 0 6 -4 10 -10 10 -5 0
-10 -4 -10 -10z"/>
<path d="M350 3182 c0 -4 9 -8 20 -9 11 -1 18 2 15 8 -7 11 -35 12 -35 1z"/>
<path d="M647 3026 c-4 -11 -3 -24 3 -30 14 -14 18 -5 10 24 -5 23 -7 23 -13
6z"/>
<path d="M275 3020 c-2 -4 1 -13 8 -18 9 -8 16 -6 24 6 9 15 7 18 -8 19 -10 1
-21 -2 -24 -7z"/>
<path d="M375 3010 c-3 -5 -1 -10 4 -10 6 0 11 5 11 10 0 6 -2 10 -4 10 -3 0
-8 -4 -11 -10z"/>
<path d="M340 2926 c0 -9 26 -36 35 -36 3 0 4 4 1 9 -4 5 0 11 6 14 8 2 9 8 4
13 -5 5 -11 4 -13 -4 -4 -10 -8 -10 -19 -1 -8 6 -14 8 -14 5z"/>
<path d="M3859 2993 c-13 -16 -12 -17 4 -4 16 13 21 21 13 21 -2 0 -10 -8 -17
-17z"/>
<path d="M450 2990 c0 -5 5 -10 11 -10 5 0 7 5 4 10 -3 6 -8 10 -11 10 -2 0
-4 -4 -4 -10z"/>
<path d="M434 2964 c3 -9 6 -23 6 -32 0 -14 2 -15 9 -2 6 8 7 18 5 22 -3 4 1
8 8 8 9 0 9 3 -2 10 -22 14 -33 12 -26 -6z"/>
<path d="M495 3020 c3 -5 8 -10 11 -10 2 0 4 5 4 10 0 6 -5 10 -11 10 -5 0 -7
-4 -4 -10z"/>
<path d="M614 2879 c-3 -6 -1 -16 4 -21 8 -8 11 -5 9 11 -1 24 -3 25 -13 10z"/>
<path d="M680 2769 c0 -16 29 -59 34 -51 3 6 -3 21 -14 33 -11 13 -19 21 -20
18z"/>
<path d="M790 2866 c0 -17 16 -30 23 -19 3 5 -1 14 -9 21 -12 10 -14 10 -14
-2z"/>
<path d="M820 2835 c-14 -16 -3 -20 19 -6 8 5 9 11 3 15 -5 3 -15 -1 -22 -9z"/>
<path d="M3265 2820 c3 -5 8 -10 11 -10 2 0 4 5 4 10 0 6 -5 10 -11 10 -5 0
-7 -4 -4 -10z"/>
<path d="M450 2066 c0 -2 8 -10 18 -17 15 -13 16 -12 3 4 -13 16 -21 21 -21
13z"/>
<path d="M542 1948 c13 -18 35 -48 48 -65 13 -18 25 -31 28 -29 4 4 -88 126
-96 126 -2 0 7 -15 20 -32z"/>
<path d="M471 1965 c-1 -5 8 -21 19 -35 11 -14 20 -20 20 -14 0 7 -9 22 -20
35 -10 13 -19 20 -19 14z"/>
<path d="M3650 2415 c-10 -13 -9 -15 9 -15 12 0 21 6 21 15 0 8 -4 15 -9 15
-5 0 -14 -7 -21 -15z"/>
<path d="M3568 2270 c-5 -35 7 -41 16 -7 8 30 7 37 -3 37 -5 0 -11 -13 -13
-30z"/>
<path d="M3501 1994 c0 -11 3 -14 6 -6 3 7 2 16 -1 19 -3 4 -6 -2 -5 -13z"/>
<path d="M3623 1889 c-2 -17 0 -18 14 -4 9 9 22 14 30 11 8 -3 12 -2 9 3 -11
17 -52 9 -53 -10z"/>
<path d="M3460 1881 c0 -5 -2 -16 -5 -24 -3 -7 0 -14 8 -14 9 0 12 8 9 24 -4
23 -12 32 -12 14z"/>
<path d="M3595 1829 c-11 -17 1 -21 15 -4 8 9 8 15 2 15 -6 0 -14 -5 -17 -11z"/>
<path d="M3550 1789 c0 -5 5 -7 10 -4 6 3 10 8 10 11 0 2 -4 4 -10 4 -5 0 -10
-5 -10 -11z"/>
<path d="M3455 1760 c3 -5 15 -10 25 -10 10 0 22 5 25 10 4 6 -7 10 -25 10
-18 0 -29 -4 -25 -10z"/>
<path d="M3501 1746 c-13 -7 -19 -16 -14 -19 6 -4 18 2 28 13 21 23 19 24 -14
6z"/>
<path d="M2915 2670 c-3 -5 -1 -10 4 -10 6 0 11 5 11 10 0 6 -2 10 -4 10 -3 0
-8 -4 -11 -10z"/>
<path d="M2746 2601 c-5 -8 40 -9 47 -1 3 3 -6 6 -19 6 -13 1 -26 -1 -28 -5z"/>
<path d="M2730 2566 c4 -4 16 -4 26 2 16 9 14 10 -8 9 -15 -1 -23 -6 -18 -11z"/>
<path d="M2624 2537 c-8 -9 -7 -16 1 -24 10 -9 13 -6 13 13 0 13 -1 24 -2 24
0 -1 -6 -6 -12 -13z"/>
<path d="M2728 2523 c7 -3 16 -2 19 1 4 3 -2 6 -13 5 -11 0 -14 -3 -6 -6z"/>
<path d="M1210 2625 c0 -3 15 -12 33 -20 17 -8 26 -14 19 -15 -7 0 -22 5 -33
10 -13 8 -25 8 -37 0 -12 -8 -13 -10 -2 -8 8 1 25 -3 37 -10 12 -7 30 -9 40
-6 15 5 15 4 3 -5 -8 -6 -10 -11 -4 -11 33 0 23 35 -17 55 -30 16 -39 18 -39
10z"/>
<path d="M1206 2565 c18 -14 17 -15 -11 -10 -24 5 -27 4 -13 -5 10 -6 29 -8
44 -4 26 7 26 8 9 20 -27 20 -55 19 -29 -1z"/>
<path d="M1235 2534 l-30 -14 30 6 c17 3 34 10 40 15 14 13 -5 11 -40 -7z"/>
<path d="M1260 2520 c-8 -5 -12 -10 -10 -12 47 -30 62 -28 38 5 -9 12 -17 14
-28 7z"/>
<path d="M3563 2124 c-3 -8 -1 -20 6 -27 8 -8 11 -4 11 16 0 30 -7 35 -17 11z"/>
<path d="M1972 1736 l-24 -13 27 -17 c15 -10 24 -13 21 -7 -4 6 0 11 9 11 9 0
13 5 10 10 -4 6 -11 7 -17 4 -7 -5 -9 -1 -5 9 8 20 8 20 -21 3z"/>
<path d="M410 1673 c0 -15 18 -35 23 -27 3 5 -1 15 -9 22 -8 7 -14 9 -14 5z"/>
<path d="M60 3957 c0 -27 3 -37 9 -28 5 7 6 23 4 35 -4 17 -3 18 6 6 9 -13 11
-12 12 5 0 17 3 15 13 -7 l12 -28 11 30 c6 17 7 30 2 30 -5 0 -9 -6 -9 -12 0
-9 -3 -9 -8 -3 -4 6 -17 12 -29 12 -20 2 -23 -3 -23 -40z"/>
<path d="M789 3973 c-21 -55 -50 -173 -64 -259 -18 -111 -20 -253 -4 -237 7 7
11 41 11 80 -1 52 1 63 8 45 6 -13 7 -29 4 -35 -5 -8 -3 -9 4 -2 8 7 8 23 0
56 -6 26 -7 55 -3 65 5 11 8 22 7 26 -1 4 5 26 13 49 9 24 13 49 11 56 -7 16
19 89 31 86 5 -1 10 7 10 18 1 11 -2 17 -6 15 -5 -3 -6 6 -3 19 2 14 9 28 14
31 5 3 6 -7 3 -23 l-5 -28 14 30 c13 27 15 28 22 11 7 -19 8 -19 15 0 5 13 7
7 6 -17 -2 -34 -17 -46 -17 -13 0 8 -5 14 -11 14 -6 0 -9 -9 -6 -20 3 -11 1
-18 -4 -14 -5 3 -9 -7 -9 -21 0 -20 -4 -26 -15 -21 -9 3 -15 0 -15 -9 0 -7 7
-20 15 -29 19 -18 19 -37 0 -62 -14 -18 -14 -18 -16 11 -1 17 -2 36 -2 42 1 7
-2 11 -6 9 -9 -6 -6 -75 4 -99 4 -10 5 -21 1 -24 -3 -3 -10 5 -16 18 -9 20
-10 17 -6 -20 3 -30 1 -40 -5 -30 -11 17 -11 -21 1 -66 l8 -30 1 34 c0 19 4
31 8 28 11 -12 33 15 33 40 0 13 -5 33 -10 44 -9 16 -7 19 15 19 18 0 25 5 25
20 0 11 8 28 18 38 10 10 16 29 14 47 -2 23 0 27 7 15 9 -13 11 -12 12 5 3 26
0 64 -6 91 -4 17 -13 21 -50 22 -41 2 -46 0 -56 -25z"/>
<path d="M1662 3955 c-12 -25 -22 -59 -22 -75 0 -36 -20 -131 -30 -145 -4 -5
-10 -67 -13 -136 -2 -70 -9 -135 -15 -145 -9 -17 -16 -13 -68 39 l-57 57 6
-50 c3 -28 19 -112 36 -188 16 -75 34 -159 40 -187 9 -46 10 -42 6 38 -3 67 0
103 15 150 26 87 47 205 56 317 7 95 7 95 53 150 60 71 91 114 125 173 46 78
15 52 -42 -36 -29 -45 -68 -100 -86 -122 l-34 -40 18 90 c9 50 24 105 34 123
9 17 13 32 8 32 -4 0 -18 -20 -30 -45z"/>
<path d="M2000 3994 c0 -13 95 -152 130 -190 33 -36 39 -50 44 -105 14 -130
56 -366 76 -429 11 -36 33 -89 49 -119 l28 -54 2 85 c1 54 10 123 26 184 14
54 23 100 20 102 -2 3 -34 -21 -69 -52 l-64 -56 -6 27 c-15 71 -45 286 -50
358 -10 124 -16 167 -34 212 -25 62 -33 52 -12 -14 9 -32 20 -83 23 -113 l7
-55 -26 30 c-14 17 -50 67 -80 113 -49 75 -64 92 -64 76z"/>
<path d="M3170 3996 c0 -3 14 -46 30 -95 22 -66 35 -134 47 -246 17 -156 29
-196 25 -82 -6 147 -67 427 -93 427 -5 0 -9 -2 -9 -4z"/>
<path d="M1867 3818 c-119 -211 -124 -222 -131 -291 -14 -139 -57 -339 -91
-419 -11 -27 10 -21 30 8 21 32 45 110 45 149 0 24 2 27 11 15 8 -12 10 -10 5
10 -3 14 -1 52 4 85 5 33 14 96 20 140 7 44 17 86 24 94 9 12 8 13 -2 7 -8 -5
-3 9 11 30 13 22 42 74 65 116 l40 78 31 -47 c20 -30 29 -54 25 -67 -4 -17 -3
-18 5 -6 8 12 12 9 23 -15 7 -17 21 -41 30 -55 10 -14 22 -57 27 -95 10 -64
18 -100 53 -220 6 -22 31 -82 55 -134 24 -52 43 -103 43 -115 0 -12 -13 -57
-30 -100 -16 -44 -28 -81 -26 -83 14 -14 76 153 76 204 0 13 -11 43 -24 66
-40 68 -75 173 -107 317 -16 74 -34 146 -40 160 -14 35 -132 210 -141 210 -4
0 -18 -19 -31 -42z"/>
<path d="M1884 3731 c0 -9 -5 -15 -12 -13 -8 1 -11 -2 -7 -7 3 -6 -2 -25 -11
-42 -13 -25 -18 -29 -26 -18 -8 11 -9 10 -4 -4 6 -19 -22 -87 -41 -100 -7 -4
-13 -13 -13 -20 0 -7 4 -6 10 3 7 11 10 6 10 -20 0 -23 -3 -30 -9 -22 -5 8 -6
-8 -3 -37 3 -30 1 -51 -5 -51 -6 0 -8 -10 -6 -23 3 -13 -5 -79 -17 -147 l-22
-124 53 -104 c40 -77 64 -111 93 -133 75 -55 104 -34 186 135 48 99 52 112 42
140 -26 73 -65 245 -66 288 -1 25 -4 42 -7 36 -4 -6 -10 12 -13 38 -4 27 -25
84 -47 127 -22 42 -37 77 -34 77 11 0 -27 34 -40 36 -7 1 -12 -6 -11 -15z m49
-174 c24 -17 25 -81 2 -107 -14 -15 -29 -20 -54 -18 -34 3 -36 5 -39 44 -5 68
46 114 91 81z"/>
<path d="M1890 3502 c0 -30 8 -45 20 -37 9 6 0 65 -11 65 -5 0 -9 -13 -9 -28z"/>
<path d="M1960 3679 c0 -5 5 -7 10 -4 6 3 10 8 10 11 0 2 -4 4 -10 4 -5 0 -10
-5 -10 -11z"/>
<path d="M1970 3650 c0 -5 5 -10 10 -10 6 0 10 5 10 10 0 6 -4 10 -10 10 -5 0
-10 -4 -10 -10z"/>
<path d="M2004 3636 c4 -11 3 -22 -3 -25 -5 -3 -3 -12 5 -19 11 -10 13 -7 10
18 -2 17 -7 34 -11 38 -5 4 -5 -2 -1 -12z"/>
<path d="M806 3585 c-11 -8 -17 -17 -14 -20 2 -3 13 4 23 15 21 23 18 25 -9 5z"/>
<path d="M2022 3540 c0 -14 2 -19 5 -12 2 6 2 18 0 25 -3 6 -5 1 -5 -13z"/>
<path d="M3992 3490 c0 -14 2 -19 5 -12 2 6 2 18 0 25 -3 6 -5 1 -5 -13z"/>
<path d="M2437 3378 c-57 -151 -60 -285 -8 -408 27 -64 126 -230 137 -230 2 0
-6 21 -19 46 l-22 46 28 20 c16 11 49 50 74 87 l45 66 -7 -49 c-4 -27 -9 -56
-12 -65 -4 -11 -3 -13 5 -6 27 25 42 198 21 252 -24 63 -194 283 -219 283 -4
0 -15 -19 -23 -42z m137 -179 c-2 -4 3 -12 11 -19 17 -14 21 -80 4 -80 -5 0
-8 -4 -5 -9 9 -13 -58 -23 -85 -12 -13 5 -19 10 -14 11 6 0 4 4 -3 9 -7 4 -15
25 -17 45 -2 21 -1 35 2 32 3 -2 18 4 35 14 27 16 81 23 72 9z"/>
<path d="M2530 3140 c0 -16 5 -30 10 -30 6 0 10 14 10 30 0 17 -4 30 -10 30
-5 0 -10 -13 -10 -30z"/>
<path d="M1346 3351 c-36 -22 -72 -54 -91 -82 -48 -70 -95 -225 -102 -333 -7
-109 5 -109 18 0 12 95 24 121 34 75 4 -18 20 -48 37 -67 25 -28 37 -34 71
-34 24 0 48 7 61 18 16 14 15 9 -7 -32 -15 -27 -25 -51 -23 -53 7 -8 67 86 97
152 36 81 37 139 5 268 -34 135 -30 131 -100 88z m18 -173 c16 -26 19 -78 4
-78 -5 0 -6 -4 -3 -10 3 -5 -2 -10 -12 -10 -10 0 -30 -8 -43 -17 -24 -16 -24
-16 -10 2 14 17 13 18 -10 13 -21 -4 -25 0 -27 21 -4 39 7 92 17 86 5 -3 11
-1 15 5 11 18 54 11 69 -12z m-116 -83 c-3 -3 -9 2 -12 12 -6 14 -5 15 5 6 7
-7 10 -15 7 -18z"/>
<path d="M1310 3140 c0 -16 5 -30 10 -30 6 0 10 14 10 30 0 17 -4 30 -10 30
-5 0 -10 -13 -10 -30z"/>
<path d="M1630 3065 c0 -13 122 -247 126 -242 3 3 -22 59 -55 126 -54 106 -71
135 -71 116z"/>
<path d="M3770 2748 c0 -7 18 -48 39 -93 41 -83 98 -270 108 -353 6 -51 -18
-119 -37 -107 -6 4 -7 -1 -3 -11 4 -11 3 -15 -5 -10 -6 3 -14 1 -18 -5 -5 -8
-3 -9 6 -4 8 5 11 3 8 -6 -3 -8 -10 -13 -15 -12 -6 1 -11 -28 -12 -65 -1 -43
-8 -76 -19 -92 -9 -14 -15 -31 -13 -39 2 -9 -3 -12 -14 -7 -14 5 -16 2 -11
-19 4 -14 2 -25 -4 -25 -5 0 -10 5 -10 10 0 6 -7 10 -15 10 -8 0 -15 -5 -15
-11 0 -5 6 -7 13 -3 10 6 10 4 0 -7 -16 -16 -17 -33 -1 -23 7 4 8 3 4 -5 -10
-15 -29 -3 -22 15 11 29 -11 11 -64 -54 -30 -37 -60 -71 -67 -75 -8 -5 -10
-19 -6 -37 6 -34 -2 -38 -30 -13 -19 17 -20 17 -14 1 4 -12 2 -15 -7 -12 -8 3
-23 -7 -35 -22 -11 -15 -21 -23 -21 -19 0 5 -9 0 -20 -10 -12 -10 -19 -24 -16
-31 3 -8 -1 -11 -10 -7 -9 3 -14 -1 -14 -12 0 -9 -4 -13 -10 -10 -5 3 -10 0
-10 -7 0 -7 -12 -21 -27 -30 -18 -11 -22 -18 -12 -18 9 0 26 9 39 20 25 22 35
26 25 10 -12 -19 13 -47 40 -45 29 4 44 -12 21 -21 -9 -3 -13 -10 -10 -15 3
-5 16 -1 30 8 14 9 22 19 17 22 -12 9 -15 34 -4 27 5 -4 16 3 24 14 8 12 28
25 43 29 16 5 28 14 26 20 -1 7 2 21 8 31 13 25 2 26 -16 3 -7 -10 -13 -13
-13 -8 0 6 18 30 40 55 39 42 41 43 36 17 -3 -21 -2 -25 9 -16 9 8 10 17 3 36
-11 30 -5 42 20 40 12 -1 17 -7 14 -17 -4 -12 -2 -12 9 2 8 9 21 18 29 20 7 2
20 10 27 18 27 31 0 -14 -35 -58 -19 -23 -38 -40 -42 -37 -11 6 -81 -62 -81
-78 1 -7 9 -3 18 8 10 11 29 29 42 40 14 10 1 -6 -29 -37 -30 -32 -59 -54 -64
-51 -6 3 -7 1 -4 -4 8 -13 -27 -46 -38 -36 -4 5 -5 2 0 -6 6 -10 4 -12 -5 -6
-8 5 -11 4 -7 -2 4 -6 -4 -20 -17 -32 -19 -18 -28 -21 -44 -12 -11 6 -21 9
-23 8 -2 -1 2 4 10 10 20 17 6 29 -14 13 -9 -7 -15 -9 -14 -4 3 13 -12 44 -22
44 -4 0 -22 -15 -40 -32 -22 -23 -29 -27 -25 -14 7 19 6 19 -14 1 -11 -10 -20
-27 -20 -38 0 -21 0 -21 15 -1 13 18 14 18 15 1 0 -16 8 -18 53 -16 28 1 61 7
72 12 18 9 19 8 6 -6 -7 -10 -9 -17 -3 -17 11 0 170 145 185 168 4 6 13 12 19
12 7 0 6 -5 -2 -15 -7 -8 -9 -15 -4 -15 5 0 5 -4 -1 -8 -5 -4 -17 -16 -25 -27
-14 -19 -14 -19 6 -3 19 17 20 17 19 -5 0 -28 -14 -49 -26 -41 -5 3 -7 10 -4
15 11 16 -4 10 -48 -22 -23 -17 -41 -36 -39 -41 2 -6 -4 -8 -13 -4 -9 3 -13 2
-10 -4 10 -17 38 -12 31 5 -4 13 -2 14 14 5 16 -9 19 -8 14 7 -5 15 -4 16 5 3
15 -21 14 -30 -6 -31 -15 0 -15 -2 2 -9 11 -4 47 -15 80 -25 33 -9 88 -29 122
-44 l63 -26 0 -142 c0 -132 -1 -143 -18 -143 -11 0 -27 9 -38 21 -29 32 -157
108 -220 130 -31 11 -78 23 -103 26 -44 5 -47 4 -73 -33 -19 -26 -35 -38 -54
-39 -26 -1 -26 -1 -5 13 11 8 21 18 21 23 0 14 -59 -12 -82 -37 -27 -27 -49
-33 -25 -6 10 10 14 22 10 25 -3 4 3 7 13 7 11 0 24 4 30 10 5 5 22 11 37 12
15 1 27 6 27 11 0 9 -67 0 -85 -11 -5 -4 -12 -7 -15 -7 -44 -6 -96 -77 -83
-111 4 -11 2 -15 -4 -11 -7 4 -25 -21 -46 -62 l-35 -69 29 10 c16 5 26 15 22
21 -3 5 -1 7 5 4 15 -10 43 3 35 16 -4 6 -1 7 6 3 15 -9 73 13 66 24 -3 5 0
12 6 16 8 4 9 3 5 -4 -4 -7 -3 -12 3 -12 5 0 -6 -23 -25 -52 -30 -44 -76 -120
-121 -201 -7 -12 -20 -22 -30 -23 -38 -2 -44 -4 -39 -13 3 -5 -2 -8 -12 -7
-14 1 -17 -8 -18 -44 -2 -56 6 -111 15 -106 3 2 6 -15 7 -37 1 -95 99 -224
206 -272 55 -25 75 -29 158 -29 137 -1 224 32 351 131 30 23 61 43 67 43 9 0
12 -38 12 -139 l0 -139 -72 -30 c-161 -66 -237 -82 -398 -82 -226 0 -400 71
-513 207 -61 75 -128 208 -142 285 -4 23 -11 35 -18 31 -6 -4 -8 0 -4 10 3 10
5 17 4 17 -1 0 -53 -25 -115 -55 -62 -30 -121 -55 -130 -55 -14 0 -15 -2 -3
-9 8 -5 15 -19 16 -30 1 -15 -2 -18 -10 -11 -14 12 -71 15 -105 6 -21 -6 -20
-4 5 8 l30 15 -41 -6 c-39 -5 -42 -4 -52 27 -7 19 -16 29 -23 25 -8 -6 -8 -2
0 14 13 24 26 29 18 6 -4 -8 -1 -17 6 -21 7 -4 9 -4 5 1 -9 9 9 35 23 35 5 0
2 -11 -7 -25 -9 -13 -14 -29 -12 -35 2 -7 13 7 25 29 l22 41 -271 0 -271 0 5
-44 c7 -58 48 -143 89 -185 69 -69 211 -103 340 -82 86 14 208 63 242 97 30
30 76 40 100 22 16 -12 15 -13 -9 -15 -19 -1 -23 1 -13 8 11 7 11 9 -3 9 -12
0 -16 -9 -15 -35 l1 -35 25 23 c24 20 24 20 -1 -9 -26 -27 -28 -37 -28 -108
l0 -77 -34 -14 c-95 -40 -221 -63 -351 -65 -318 -3 -498 94 -593 320 l-19 45
-108 25 c-74 16 -110 20 -112 13 -13 -38 -89 -145 -137 -194 -69 -68 -141
-108 -261 -145 -89 -27 -93 -28 -432 -32 l-343 -4 0 89 c-1 433 -3 503 -13
503 -5 0 -43 -17 -84 -37 l-73 -37 0 -278 0 -278 2000 0 2000 0 0 1083 c0
1071 0 1083 -20 1097 -14 10 -20 26 -20 56 0 112 -53 310 -111 412 l-31 55 54
-30 c29 -17 70 -41 91 -53 l37 -22 -2 30 c-1 17 -4 29 -7 27 -2 -3 -51 20
-107 50 -57 30 -106 55 -109 55 -3 0 -5 -5 -5 -12z m160 -560 c0 -18 -2 -20
-9 -8 -6 8 -7 18 -5 22 9 14 14 9 14 -14z m-23 -23 c-4 -8 -2 -17 3 -20 6 -4
10 -16 10 -28 -1 -19 -3 -18 -16 8 -8 17 -12 22 -9 12 3 -10 1 -15 -4 -12 -5
3 -13 0 -17 -6 -4 -7 -3 -9 4 -5 16 10 26 -14 12 -27 -10 -9 -11 -9 -5 3 5 10
5 12 -3 5 -5 -5 -12 -19 -15 -30 -3 -11 -5 -2 -4 20 0 23 10 52 21 68 22 30
31 35 23 12z m0 -137 c-2 -13 -4 -5 -4 17 -1 22 1 32 4 23 2 -10 2 -28 0 -40z
m-50 -70 c-2 -13 -4 -3 -4 22 0 25 2 35 4 23 2 -13 2 -33 0 -45z m30 20 c-3
-7 -5 -2 -5 12 0 14 2 19 5 13 2 -7 2 -19 0 -25z m-60 -20 c-3 -8 -6 -5 -6 6
-1 11 2 17 5 13 3 -3 4 -12 1 -19z m60 -30 c-3 -8 -6 -5 -6 6 -1 11 2 17 5 13
3 -3 4 -12 1 -19z m-67 -10 c-1 -7 -7 -31 -15 -53 -8 -21 -12 -41 -10 -43 2
-2 -2 -10 -8 -17 -13 -14 -27 -10 -27 6 0 6 4 8 10 4 5 -3 15 22 22 55 6 33
16 60 20 60 4 0 8 -6 8 -12z m48 -46 c-10 -2 -18 -12 -18 -23 0 -11 4 -17 10
-14 6 4 7 -1 3 -11 -5 -14 -7 -14 -14 -1 -5 8 -8 26 -7 40 2 19 6 23 23 18 17
-4 18 -6 3 -9z m-182 -99 c-3 -4 -6 0 -6 7 0 9 -5 8 -13 -5 -8 -10 -19 -15
-26 -11 -9 6 -9 11 0 22 6 7 15 11 20 8 5 -3 9 1 9 8 0 8 5 6 11 -5 6 -10 8
-21 5 -24z m158 12 c-4 -8 -8 -15 -10 -15 -2 0 -4 7 -4 15 0 8 4 15 10 15 5 0
7 -7 4 -15z m-70 -87 c-5 -7 -7 -20 -6 -29 2 -12 -5 -16 -22 -16 l-26 0 28 32
c26 31 42 39 26 13z m-274 -78 c5 0 7 7 4 15 -4 8 -2 15 4 15 16 0 7 -31 -13
-42 -13 -8 -16 -7 -11 1 4 6 0 11 -10 11 -14 0 -15 2 -3 17 13 15 14 15 17 0
2 -10 7 -17 12 -17z m230 -17 c1 4 3 11 4 16 0 5 4 13 8 17 17 16 -3 -37 -23
-65 -13 -17 -23 -31 -23 -31 -1 0 -2 12 -3 27 0 16 2 21 7 13 6 -10 9 -10 16
1 4 7 3 14 -3 16 -6 2 -8 14 -5 26 6 22 6 22 13 -3 4 -14 8 -22 9 -17z m-187
-16 c3 -8 1 -20 -5 -28 -8 -11 -9 -10 -4 4 3 9 1 17 -5 17 -6 0 -7 5 -4 10 8
13 12 13 18 -3z m91 -118 c-3 -5 -10 -7 -15 -3 -5 3 -7 10 -3 15 3 5 10 7 15
3 5 -3 7 -10 3 -15z m-379 -319 c-3 -5 -11 -10 -16 -10 -6 0 -7 5 -4 10 3 6
11 10 16 10 6 0 7 -4 4 -10z m98 -47 c-9 -13 -25 -28 -37 -34 -20 -9 -20 -9
-3 5 10 8 20 23 22 33 4 22 2 20 19 20 12 0 12 -4 -1 -24z m-35 -8 c-3 -3 -9
2 -12 12 -6 14 -5 15 5 6 7 -7 10 -15 7 -18z m-78 -70 c-14 -8 -29 -14 -35
-14 -5 0 1 6 15 14 14 8 30 14 35 14 6 0 -1 -6 -15 -14z m-50 -9 c0 -3 -4 -8
-10 -11 -5 -3 -10 -1 -10 4 0 6 5 11 10 11 6 0 10 -2 10 -4z m70 -10 c0 -2 -7
-7 -16 -10 -8 -3 -12 -2 -9 4 6 10 25 14 25 6z m-180 -317 c0 8 2 12 5 9 3 -3
2 -13 -1 -22 -5 -14 -9 -15 -15 -4 -5 7 -9 18 -9 23 0 6 5 3 10 -5 8 -12 10
-12 10 -1z m11 -56 c-8 -15 -10 -15 -11 -2 0 17 10 32 18 25 2 -3 -1 -13 -7
-23z m-446 -131 c-11 -3 -23 -9 -27 -16 -6 -8 -8 -8 -8 1 0 16 32 33 45 25 5
-4 1 -8 -10 -10z m79 -8 c3 -8 2 -12 -4 -9 -6 3 -10 10 -10 16 0 14 7 11 14
-7z m1 -34 c-3 -5 -1 -10 4 -10 12 0 15 -27 4 -33 -5 -3 -17 0 -28 4 -18 9
-18 9 3 5 26 -5 30 9 5 18 -15 6 -15 8 -3 16 19 12 23 12 15 0z m-450 -19 c-3
-11 -1 -22 5 -26 5 -3 10 -1 10 6 0 7 3 9 7 6 8 -9 -26 -47 -42 -47 -20 0 -39
-27 -23 -33 7 -2 10 -7 7 -11 -3 -4 -11 0 -18 8 -9 11 -9 17 1 28 7 7 22 30
32 51 21 40 31 49 21 18z m261 4 c-11 -8 -25 -15 -30 -15 -6 0 -2 7 8 15 11 8
25 15 30 15 6 0 2 -7 -8 -15z m14 -39 c-1 -5 4 -12 11 -17 8 -4 10 -12 5 -16
-5 -4 -11 -2 -13 5 -4 10 -10 9 -24 -4 -19 -17 -20 -17 -14 2 6 18 6 18 -10
-1 -17 -20 -17 -20 -10 5 4 14 13 28 19 32 14 10 37 6 36 -6z m-1148 -38 c14
-21 17 -21 34 -8 17 14 18 14 6 -2 -8 -9 -11 -22 -7 -28 5 -8 1 -8 -11 0 -24
15 -58 60 -46 60 5 0 16 -10 24 -22z m1045 6 c-3 -3 -12 -4 -19 -1 -8 3 -5 6
6 6 11 1 17 -2 13 -5z m28 -12 c-9 -9 -75 -19 -75 -12 0 5 -8 10 -17 12 -10 2
7 4 39 3 31 0 55 -2 53 -3z m-965 -17 c7 -9 8 -15 2 -15 -5 0 -12 7 -16 15 -3
8 -4 15 -2 15 2 0 9 -7 16 -15z m1135 5 c-3 -5 -14 -10 -23 -9 -14 0 -13 2 3
9 27 11 27 11 20 0z m-290 -10 c-3 -5 -12 -7 -20 -3 -21 7 -19 13 6 13 11 0
18 -4 14 -10z m-140 -20 c-3 -5 12 -7 32 -4 l38 4 -34 -11 c-18 -5 -36 -8 -39
-4 -10 10 -11 35 -1 29 5 -3 7 -9 4 -14z m-726 -15 c7 4 8 0 4 -11 -5 -14 -3
-15 16 -4 23 12 51 0 51 -23 0 -6 -7 -2 -15 9 -14 19 -14 18 -15 -3 0 -13 5
-23 12 -23 15 0 48 -30 48 -43 0 -6 -3 -8 -6 -4 -4 3 -13 0 -21 -8 -16 -17
-33 -20 -33 -6 0 5 -3 16 -6 25 -3 9 -1 16 5 16 6 0 11 -9 11 -21 0 -19 1 -19
16 -4 9 9 15 17 13 19 -2 1 -16 10 -31 19 l-28 17 4 -32 c4 -29 3 -31 -10 -14
-7 11 -11 23 -8 27 3 5 -6 24 -20 42 -15 19 -26 38 -26 43 0 5 7 1 15 -10 7
-10 18 -15 24 -11z m834 18 c-7 -2 -19 -2 -25 0 -7 3 -2 5 12 5 14 0 19 -2 13
-5z m-872 -30 c13 -16 12 -17 -3 -4 -17 13 -22 21 -14 21 2 0 10 -8 17 -17z
m744 7 c3 -5 1 -10 -4 -10 -6 0 -11 5 -11 10 0 6 2 10 4 10 3 0 8 -4 11 -10z
m-567 -151 c-3 -8 -7 -3 -11 10 -4 17 -3 21 5 13 5 -5 8 -16 6 -23z m1 -44 c0
-5 -6 -1 -14 9 -8 11 -15 24 -15 30 0 5 7 1 15 -10 8 -10 14 -23 14 -29z m-29
0 c14 -19 14 -19 -2 -6 -10 7 -18 18 -18 24 0 6 1 8 3 6 1 -2 9 -13 17 -24z
m87 -50 c2 -16 1 -17 -6 -5 -5 8 -8 17 -5 21 2 4 -3 12 -10 18 -10 8 -16 9
-21 1 -3 -5 -1 -10 6 -10 7 0 9 -3 6 -7 -4 -3 0 -17 8 -30 9 -13 12 -23 7 -23
-5 0 -15 15 -24 32 -11 24 -12 37 -5 50 10 15 12 15 26 -5 9 -12 17 -31 18
-42z m33 -31 c0 -8 -19 -13 -24 -6 -3 5 1 9 9 9 8 0 15 -2 15 -3z"/>
<path d="M3645 1780 c-3 -5 -1 -10 4 -10 6 0 11 5 11 10 0 6 -2 10 -4 10 -3 0
-8 -4 -11 -10z"/>
<path d="M2520 400 c0 -5 4 -10 9 -10 6 0 13 5 16 10 3 6 -1 10 -9 10 -9 0
-16 -4 -16 -10z"/>
<path d="M1500 269 c0 -5 5 -7 10 -4 6 3 10 8 10 11 0 2 -4 4 -10 4 -5 0 -10
-5 -10 -11z"/>
<path d="M3980 2720 c-6 -19 -5 -50 1 -50 13 0 17 14 8 35 -4 11 -8 18 -9 15z"/>
<path d="M1702 2585 c-11 -14 -24 -25 -30 -25 -8 0 -22 -44 -22 -72 0 -15 48
37 53 58 2 10 5 0 6 -23 l1 -43 40 0 40 0 0 50 c0 45 -3 51 -30 65 -37 19 -35
19 -58 -10z"/>
<path d="M55 2579 c-4 -6 -5 -12 -2 -15 2 -3 7 2 10 11 7 17 1 20 -8 4z"/>
<path d="M4 2468 c-4 -7 -3 -8 4 -4 13 8 17 -6 5 -18 -4 -3 -7 -15 -8 -26 -1
-14 2 -17 10 -10 15 13 38 -11 30 -31 -3 -8 7 -22 24 -34 16 -10 28 -22 25
-26 -2 -4 3 -12 11 -19 25 -21 17 4 -15 46 -16 21 -30 45 -30 52 0 6 -5 12
-12 12 -6 0 -9 3 -5 6 6 6 -19 64 -28 64 -2 0 -7 -5 -11 -12z m31 -38 c3 -6
-1 -7 -9 -4 -18 7 -21 14 -7 14 6 0 13 -4 16 -10z"/>
<path d="M1605 2470 c3 -5 13 -10 21 -10 8 0 14 5 14 10 0 6 -9 10 -21 10 -11
0 -17 -4 -14 -10z"/>
<path d="M180 2294 c0 -8 5 -12 10 -9 6 3 10 10 10 16 0 5 -4 9 -10 9 -5 0
-10 -7 -10 -16z"/>
<path d="M2090 1860 c-8 -15 -8 -20 2 -20 10 0 10 -2 -1 -9 -9 -6 -10 -11 -2
-15 6 -4 11 -4 12 1 0 4 2 20 4 36 4 32 0 34 -15 7z"/>
<path d="M2030 1761 c0 -5 5 -13 10 -16 6 -3 10 -2 10 4 0 5 -4 13 -10 16 -5
3 -10 2 -10 -4z"/>
<path d="M3745 1740 c-9 -10 -22 -18 -29 -17 -6 1 -11 -4 -11 -10 0 -23 19
-15 44 16 26 34 24 42 -4 11z"/>
<path d="M3690 1739 c0 -5 5 -7 10 -4 6 3 10 8 10 11 0 2 -4 4 -10 4 -5 0 -10
-5 -10 -11z"/>
<path d="M3575 1721 c-3 -5 -1 -12 5 -16 5 -3 10 1 10 9 0 18 -6 21 -15 7z"/>
<path d="M3647 1673 c-4 -3 -7 -11 -7 -17 0 -6 5 -5 12 2 6 6 9 14 7 17 -3 3
-9 2 -12 -2z"/>
<path d="M3565 1549 c-11 -17 1 -21 15 -4 8 9 8 15 2 15 -6 0 -14 -5 -17 -11z"/>
<path d="M3656 1513 c-6 -14 -5 -15 5 -6 7 7 10 15 7 18 -3 3 -9 -2 -12 -12z"/>
<path d="M1 1367 l-2 -105 48 -4 c26 -2 62 -2 80 0 l33 4 0 59 c0 45 -3 59
-14 59 -21 0 -31 21 -15 31 8 5 46 7 84 3 100 -9 72 7 -48 28 -56 10 -116 21
-133 24 l-32 6 -1 -105z m49 63 c0 -5 -4 -10 -10 -10 -5 0 -10 5 -10 10 0 6 5
10 10 10 6 0 10 -4 10 -10z m77 -6 c-3 -3 -12 -4 -19 -1 -8 3 -5 6 6 6 11 1
17 -2 13 -5z m-32 -14 c3 -5 1 -10 -4 -10 -6 0 -11 5 -11 10 0 6 2 10 4 10 3
0 8 -4 11 -10z m50 -90 c0 -27 -4 -50 -10 -50 -5 0 -10 23 -10 50 0 28 5 50
10 50 6 0 10 -22 10 -50z m-87 -47 c-10 -2 -26 -2 -35 0 -10 3 -2 5 17 5 19 0
27 -2 18 -5z m47 -3 c-3 -5 -11 -10 -16 -10 -6 0 -7 5 -4 10 3 6 11 10 16 10
6 0 7 -4 4 -10z"/>
<path d="M3295 1450 c-3 -5 -1 -10 4 -10 6 0 11 5 11 10 0 6 -2 10 -4 10 -3 0
-8 -4 -11 -10z"/>
<path d="M138 1393 c7 -3 16 -2 19 1 4 3 -2 6 -13 5 -11 0 -14 -3 -6 -6z"/>
<path d="M0 1242 c0 -6 17 -13 38 -16 108 -15 132 -17 132 -8 0 5 -21 13 -47
16 -27 4 -65 9 -85 12 -23 3 -38 2 -38 -4z"/>
<path d="M1 1183 c-1 -27 3 -32 26 -35 39 -4 42 -28 4 -28 l-31 0 0 -79 c0
-54 4 -81 13 -84 9 -4 9 -6 0 -6 -15 -1 -17 -47 -3 -56 6 -4 8 -11 5 -16 -4
-5 1 -9 9 -9 15 0 56 37 56 51 0 4 9 5 20 2 11 -3 20 -9 20 -14 0 -5 4 -9 10
-9 6 0 6 10 -1 28 -6 15 -10 29 -11 32 0 3 -2 7 -5 10 -4 3 -3 -1 2 -9 5 -9 3
-12 -6 -9 -17 6 -26 178 -9 178 5 0 10 -21 11 -47 l1 -48 12 60 c13 61 18 59
29 -15 3 -14 5 8 6 48 l1 72 -47 0 c-27 0 -59 3 -73 5 -22 5 -22 4 -5 -4 19
-9 19 -10 -2 -10 -12 -1 -24 5 -26 12 -3 6 -6 -2 -6 -20z m81 -192 c3 -43 0
-51 -17 -55 -30 -8 -42 -7 -25 4 10 6 13 23 11 54 -2 35 1 46 12 46 11 0 16
-14 19 -49z"/>
<path d="M3381 1184 c-17 -37 -8 -39 13 -4 9 17 13 30 8 30 -5 0 -14 -12 -21
-26z"/>
<path d="M497 1192 l-27 -3 2 -467 3 -467 136 1 c139 2 196 12 280 55 49 25
113 93 142 153 27 56 49 156 44 198 -4 28 -82 115 -89 101 -3 -5 -3 -3 -2 4 4
17 -96 124 -109 116 -6 -3 -7 -1 -3 6 4 6 0 19 -9 28 -14 14 -18 14 -27 2 -8
-11 -9 -10 -4 4 4 11 -7 31 -30 57 -40 44 -46 47 -68 25 -13 -13 -15 -13 -21
5 -5 16 -10 18 -19 11 -9 -8 -19 -4 -35 13 -22 23 -38 81 -19 70 5 -3 7 -12 4
-20 -7 -18 21 -45 39 -38 8 4 12 10 9 15 -3 5 0 9 6 9 6 0 10 -8 8 -17 -2 -10
2 -17 9 -16 8 2 10 -4 6 -14 -6 -15 -5 -16 9 -3 14 13 12 19 -23 55 -22 22
-39 43 -39 47 0 5 -9 8 -20 8 -11 0 -20 5 -20 11 0 5 5 7 12 3 6 -4 3 4 -8 18
-19 27 -70 38 -137 30z m73 -27 c0 -8 -2 -15 -4 -15 -2 0 -6 7 -10 15 -3 8 -1
15 4 15 6 0 10 -7 10 -15z m113 -96 c-5 -5 -14 4 -21 23 l-11 31 20 -22 c13
-14 18 -26 12 -32z m-69 33 c3 -5 -1 -9 -9 -9 -8 0 -15 4 -15 9 0 4 4 8 9 8 6
0 12 -4 15 -8z m-6 -67 c-3 -3 -9 2 -12 12 -6 14 -5 15 5 6 7 -7 10 -15 7 -18z
m25 -22 c-5 -12 -3 -14 7 -8 9 5 11 4 6 -4 -6 -9 -11 -9 -23 1 -10 8 -11 14
-4 16 6 2 8 9 5 14 -4 7 -2 8 4 4 6 -4 8 -14 5 -23z m132 -13 c3 -5 1 -10 -4
-10 -6 0 -11 5 -11 10 0 6 2 10 4 10 3 0 8 -4 11 -10z m-86 -33 c0 -8 -2 -8
-6 1 -4 10 -8 10 -19 1 -9 -7 -14 -8 -14 -1 0 12 21 22 33 15 4 -2 7 -10 6
-16z m131 -7 c0 -5 -2 -10 -4 -10 -3 0 -8 5 -11 10 -3 6 -1 10 4 10 6 0 11 -4
11 -10z m-72 -31 c-3 -8 -7 -3 -11 10 -4 17 -3 21 5 13 5 -5 8 -16 6 -23z m40
-9 c6 -16 9 -30 7 -30 -5 0 -35 56 -35 65 0 15 19 -8 28 -35z m-78 11 c0 -14
-29 -21 -36 -9 -4 7 -3 8 4 4 7 -4 12 -2 12 3 0 6 5 11 10 11 6 0 10 -4 10 -9z
m11 -33 c0 -7 2 -23 3 -36 4 -31 -13 -12 -20 21 -2 15 0 27 6 27 5 0 10 -6 11
-12z m56 -70 c-3 -8 -6 -5 -6 6 -1 11 2 17 5 13 3 -3 4 -12 1 -19z m32 -73 c0
-5 -6 1 -14 15 -8 14 -14 19 -15 11 0 -8 -2 -12 -5 -9 -3 3 -2 13 1 23 6 15 8
15 20 -6 7 -13 13 -28 13 -34z m30 -57 c-12 -23 -21 -24 -12 -1 4 10 2 14 -5
9 -6 -3 -13 -3 -16 2 -2 4 6 8 19 8 20 0 22 -3 14 -18z m34 5 c-5 -11 -3 -14
6 -8 10 6 11 3 1 -16 -11 -19 -10 -24 6 -36 10 -7 13 -13 8 -13 -6 0 -15 5
-22 12 -19 19 -14 -3 5 -24 15 -17 15 -18 1 -13 -22 9 -30 33 -18 55 13 24 13
33 -1 24 -8 -4 -8 0 0 15 14 25 23 28 14 4z m194 -45 c-3 -7 -5 -2 -5 12 0 14
2 19 5 13 2 -7 2 -19 0 -25z m0 -55 c-3 -10 -5 -4 -5 12 0 17 2 24 5 18 2 -7
2 -21 0 -30z m-132 17 c-27 -12 -43 -12 -25 0 8 5 22 9 30 9 10 0 8 -3 -5 -9z
m25 -15 c-7 -9 -15 -13 -19 -10 -3 3 1 10 9 15 21 14 24 12 10 -5z m7 -29 c0
-8 -6 -12 -15 -9 -11 5 -11 7 0 14 7 5 13 9 14 9 0 0 1 -6 1 -14z m68 -26 c-3
-5 -12 -10 -18 -10 -7 0 -6 4 3 10 19 12 23 12 15 0z"/>
<path d="M660 1184 c0 -10 186 -188 192 -182 5 5 50 -30 98 -75 67 -63 104
-94 96 -79 -4 7 -9 23 -12 37 -7 40 -26 81 -31 68 -3 -7 -9 -13 -15 -13 -6 0
-4 8 4 18 17 18 11 45 -10 50 -10 2 -12 -4 -7 -20 5 -21 5 -22 -6 -4 -10 16
-9 22 7 33 16 12 12 18 -9 14 -5 -1 -6 3 -2 9 4 6 -12 30 -35 53 -31 31 -40
37 -36 20 7 -23 -8 -40 -20 -22 -4 8 -3 9 4 5 18 -11 14 9 -5 32 -25 29 -185
69 -168 42 4 -6 11 -7 17 -4 6 4 8 3 5 -3 -4 -6 5 -21 18 -33 14 -13 25 -19
25 -14 0 5 12 10 27 11 l27 1 -22 -17 -23 -17 36 -34 c19 -19 35 -29 35 -23 0
6 -7 16 -15 23 -12 10 -13 16 -4 26 8 10 8 14 1 14 -6 0 -14 -5 -17 -10 -4 -6
-11 -7 -17 -4 -5 3 1 12 14 18 25 13 40 3 31 -21 -3 -7 0 -19 6 -27 6 -7 8
-21 5 -31 -6 -13 -25 1 -100 76 -52 52 -94 89 -94 83z m173 -43 c5 -5 -10 -7
-33 -6 -22 1 -46 7 -52 13 -8 8 0 10 33 6 24 -3 48 -9 52 -13z m37 -21 c0 -5
-2 -10 -4 -10 -3 0 -8 5 -11 10 -3 6 -1 10 4 10 6 0 11 -4 11 -10z m55 -40
c-3 -5 -11 -10 -16 -10 -6 0 -7 5 -4 10 3 6 11 10 16 10 6 0 7 -4 4 -10z m8
-101 c4 -16 3 -18 -9 -8 -16 13 -19 29 -5 29 5 0 11 -9 14 -21z m37 -23 c0 -2
-7 -7 -16 -10 -8 -3 -12 -2 -9 4 6 10 25 14 25 6z m30 -40 c-7 -7 -13 -7 -20
0 -6 6 -3 10 10 10 13 0 16 -4 10 -10z m23 -20 c4 -10 1 -13 -8 -9 -8 3 -12 9
-9 14 7 12 11 11 17 -5z"/>
<path d="M680 1029 c0 -5 5 -7 10 -4 6 3 10 8 10 11 0 2 -4 4 -10 4 -5 0 -10
-5 -10 -11z"/>
<path d="M1020 985 c0 -5 5 -17 10 -25 5 -8 10 -10 10 -5 0 6 -5 17 -10 25 -5
8 -10 11 -10 5z"/>
<path d="M2000 941 c-50 -16 -90 -42 -113 -73 -29 -39 -57 -116 -57 -158 l0
-30 235 0 c199 0 235 2 235 15 0 7 -5 38 -11 67 -27 125 -83 178 -197 184 -37
2 -78 0 -92 -5z"/>
<path d="M66 871 c-33 -10 -61 -22 -63 -28 -4 -10 153 30 165 42 10 10 -44 2
-102 -14z"/>
<path d="M140 839 c0 -6 -9 -8 -21 -4 -16 5 -19 4 -14 -6 6 -9 3 -11 -8 -6
-21 8 -49 -2 -41 -14 3 -5 -9 -9 -25 -9 l-31 0 0 -57 c1 -57 1 -58 18 -34 9
13 30 36 46 51 15 16 25 33 22 39 -4 6 0 11 8 11 9 0 16 -4 16 -9 0 -5 9 -7
19 -4 15 4 20 -1 24 -24 4 -22 4 -21 4 8 -1 31 -4 35 -21 31 -19 -5 -18 -3 4
16 14 12 19 21 13 22 -7 0 -13 -5 -13 -11z"/>
<path d="M1566 785 c-3 -9 -6 -22 -5 -28 0 -7 5 -1 10 12 5 13 8 26 5 28 -2 2
-6 -3 -10 -12z"/>
<path d="M3115 750 c-3 -5 -1 -10 4 -10 6 0 11 5 11 10 0 6 -2 10 -4 10 -3 0
-8 -4 -11 -10z"/>
<path d="M21 631 c-21 -13 -23 -41 -3 -33 11 4 12 7 3 10 -8 3 -7 8 6 18 20
15 16 19 -6 5z"/>
<path d="M75 620 c-3 -6 1 -7 9 -4 18 7 21 14 7 14 -6 0 -13 -4 -16 -10z"/>
<path d="M24 584 c-18 -14 -18 -15 4 -4 12 6 22 13 22 15 0 8 -5 6 -26 -11z"/>
<path d="M2420 430 c0 -5 14 -10 32 -10 36 0 35 4 -4 14 -17 4 -28 2 -28 -4z"/>
</g>
</svg>
